<svg xmlns="http://www.w3.org/2000/svg" xmlns:xlink="http://www.w3.org/1999/xlink" width="500" zoomAndPan="magnify" viewBox="0 0 375 374.999991" height="500" preserveAspectRatio="xMidYMid meet" version="1.0"><path fill="#69472a" d="M 187.699219 0 C 185.542969 0.0390625 183.832031 1.8125 183.855469 3.96875 L 183.855469 58.472656 C 183.914062 63.617188 191.625 63.617188 191.667969 58.472656 L 191.667969 3.96875 C 191.707031 1.75 189.917969 -0.0390625 187.699219 0 Z M 96.226562 24.476562 C 93.257812 24.597656 91.507812 27.832031 93.011719 30.375 L 120.296875 77.597656 C 121.375 79.46875 123.753906 80.097656 125.625 79.019531 C 127.5 77.941406 128.128906 75.5625 127.050781 73.691406 L 99.789062 26.488281 C 99.078125 25.1875 97.691406 24.414062 96.226562 24.476562 Z M 279.191406 24.476562 C 277.765625 24.476562 276.445312 25.226562 275.753906 26.488281 L 248.46875 73.691406 C 247.390625 75.5625 248.023438 77.941406 249.894531 79.019531 C 251.765625 80.117188 254.167969 79.46875 255.246094 77.597656 L 282.507812 30.375 C 284.054688 27.792969 282.203125 24.496094 279.191406 24.476562 Z M 147.621094 32.550781 C 144.976562 32.492188 143.042969 34.992188 143.753906 37.515625 L 150.8125 63.84375 C 152.199219 68.808594 159.644531 66.8125 158.363281 61.828125 L 151.300781 35.503906 C 150.875 33.792969 149.371094 32.59375 147.621094 32.550781 Z M 227.800781 32.550781 C 226.109375 32.652344 224.644531 33.832031 224.238281 35.503906 L 217.179688 61.828125 C 215.835938 66.855469 223.363281 68.867188 224.726562 63.84375 L 231.785156 37.535156 C 232.5 34.953125 230.484375 32.410156 227.800781 32.550781 Z M 77.796875 72.792969 C 74.296875 72.792969 72.566406 77.046875 75.070312 79.488281 L 94.355469 98.753906 C 95.882812 100.300781 98.363281 100.300781 99.910156 98.773438 C 101.4375 97.25 101.4375 94.765625 99.890625 93.242188 L 80.601562 73.972656 C 79.871094 73.203125 78.851562 72.773438 77.796875 72.792969 Z M 297.625 72.792969 C 296.605469 72.816406 295.628906 73.242188 294.9375 73.972656 L 275.652344 93.242188 C 274.125 94.765625 274.105469 97.25 275.652344 98.773438 C 277.175781 100.300781 279.660156 100.300781 281.183594 98.773438 L 300.453125 79.488281 C 303.015625 77.007812 301.183594 72.691406 297.625 72.792969 Z M 187.78125 78.085938 C 132.644531 78.085938 87.824219 122.519531 87.824219 177.265625 C 87.824219 190.957031 90.632812 204.019531 95.679688 215.902344 C 100.746094 227.761719 108.070312 238.464844 117.101562 247.4375 C 121.640625 251.914062 126.582031 255.960938 131.894531 259.519531 C 136.53125 262.632812 146.519531 270.488281 146.519531 287.046875 L 146.519531 306.355469 C 146.519531 306.457031 146.519531 306.558594 146.519531 306.640625 L 146.519531 335.101562 C 146.519531 357.175781 164.710938 375 187.070312 375 C 209.449219 375 227.636719 357.175781 227.636719 335.101562 L 227.636719 287.046875 C 227.636719 286.785156 227.636719 286.519531 227.597656 286.273438 C 227.941406 270.46875 238.804688 262.777344 243.648438 259.542969 C 248.980469 255.980469 253.921875 251.914062 258.4375 247.4375 C 267.492188 238.464844 274.796875 227.78125 279.863281 215.902344 C 284.929688 204.039062 287.714844 190.980469 287.714844 177.285156 C 287.714844 122.539062 242.914062 78.085938 187.78125 78.085938 Z M 187.78125 85.898438 C 238.703125 85.898438 279.902344 126.769531 279.902344 177.265625 C 279.902344 189.902344 277.320312 201.902344 272.660156 212.828125 C 268 223.753906 261.265625 233.601562 252.925781 241.882812 C 248.753906 246.011719 244.175781 249.753906 239.273438 253.050781 C 233.984375 256.589844 219.742188 267.050781 219.742188 287.046875 C 219.742188 287.292969 219.761719 287.558594 219.824219 287.800781 L 219.824219 302.734375 L 191.871094 302.734375 L 191.871094 257.261719 C 200.800781 255.777344 208.003906 249.226562 208.105469 240.640625 C 208.105469 240.582031 208.105469 240.519531 208.105469 240.457031 C 208.105469 236.957031 208.796875 233.640625 210.078125 230.632812 C 211.359375 227.621094 213.230469 224.894531 215.53125 222.617188 C 216.324219 221.820312 217.160156 221.089844 218.054688 220.417969 C 219.234375 221.128906 220.617188 221.539062 222.101562 221.539062 C 226.457031 221.539062 230.058594 217.9375 230.058594 213.582031 C 230.058594 209.226562 226.457031 205.628906 222.101562 205.628906 C 217.75 205.628906 214.128906 209.226562 214.128906 213.582031 C 214.128906 213.601562 214.128906 213.601562 214.128906 213.601562 C 212.664062 214.640625 211.300781 215.800781 210.019531 217.0625 C 207.007812 220.050781 204.585938 223.613281 202.898438 227.578125 C 201.207031 231.546875 200.273438 235.902344 200.273438 240.457031 C 200.273438 245.199219 195.246094 249.777344 187.964844 249.777344 C 180.722656 249.777344 175.695312 245.257812 175.636719 240.539062 C 175.636719 240.5 175.636719 240.476562 175.636719 240.457031 C 175.636719 227.660156 168.289062 216.550781 157.589844 211.058594 C 160.03125 209.675781 162.289062 207.96875 164.261719 205.992188 C 165.644531 204.628906 166.90625 203.125 168.003906 201.496094 C 168.859375 202.515625 169.613281 203.652344 170.242188 204.9375 C 171.179688 206.890625 173.539062 207.703125 175.472656 206.746094 C 177.425781 205.789062 178.21875 203.429688 177.261719 201.496094 C 174.171875 195.210938 168.777344 190.878906 162.65625 189.148438 C 162.289062 189.027344 161.902344 188.964844 161.496094 188.964844 C 156.976562 189.027344 156.164062 195.433594 160.539062 196.636719 C 160.90625 196.738281 161.269531 196.859375 161.617188 197 C 160.78125 198.222656 159.804688 199.382812 158.75 200.4375 C 154.457031 204.710938 148.554688 207.335938 141.984375 207.335938 C 128.863281 207.335938 118.300781 196.839844 118.300781 183.796875 C 118.300781 180.542969 118.972656 177.46875 120.152344 174.664062 C 121.355469 171.835938 123.082031 169.292969 125.238281 167.175781 C 127.375 165.039062 129.941406 163.308594 132.769531 162.109375 C 133.316406 161.90625 133.867188 161.683594 134.4375 161.5 C 134.539062 162.902344 134.78125 164.304688 135.148438 165.730469 C 136.835938 172.078125 140.988281 177.183594 146.277344 180.238281 C 148.921875 181.78125 151.871094 182.800781 154.945312 183.226562 C 157.101562 183.554688 159.09375 182.066406 159.398438 179.910156 C 159.703125 177.753906 158.179688 175.78125 156.023438 175.496094 C 154.089844 175.210938 152.21875 174.582031 150.527344 173.664062 C 151.300781 173.402344 152.074219 173.074219 152.808594 172.667969 C 158.160156 169.859375 161.046875 163.796875 159.542969 157.9375 C 158.910156 155.152344 157.285156 152.769531 155.167969 151.101562 C 154.457031 150.53125 153.558594 150.226562 152.644531 150.226562 C 148.941406 150.308594 147.394531 154.988281 150.324219 157.246094 C 151.160156 157.898438 151.75 158.792969 151.953125 159.707031 L 151.972656 159.789062 L 152.015625 159.871094 C 152.523438 161.804688 151.199219 164.753906 149.1875 165.8125 L 149.125 165.832031 L 149.085938 165.875 C 147.234375 166.890625 144.566406 166.523438 143.226562 165.261719 C 143.042969 164.773438 142.859375 164.265625 142.738281 163.738281 C 140.4375 155.132812 145.523438 146.363281 154.191406 144.0625 C 156.347656 143.492188 158.503906 143.390625 160.578125 143.675781 C 162.65625 143.960938 164.628906 144.671875 166.417969 145.691406 C 168.207031 146.726562 169.796875 148.113281 171.078125 149.761719 C 171.707031 150.574219 172.277344 151.46875 172.746094 152.425781 C 173.683594 154.417969 176.082031 155.253906 178.054688 154.277344 C 180.03125 153.300781 180.78125 150.878906 179.746094 148.925781 C 179.03125 147.5 178.199219 146.179688 177.242188 144.957031 C 177.078125 144.734375 176.917969 144.550781 176.753906 144.347656 C 180.84375 141.824219 185.21875 140.992188 189.367188 142.089844 C 194.109375 143.332031 197.789062 146.871094 199.988281 152.039062 C 200.007812 152.058594 200.007812 152.058594 200.027344 152.078125 C 200.050781 152.097656 200.050781 152.121094 200.070312 152.140625 C 201.105469 154.359375 201.453125 156.980469 200.945312 159.320312 C 200.433594 161.660156 199.234375 163.125 197.953125 163.859375 C 196.082031 164.9375 195.429688 167.339844 196.527344 169.210938 C 197.609375 171.101562 200.027344 171.734375 201.898438 170.632812 C 205.238281 168.679688 207.65625 165.203125 208.574219 160.992188 C 209.46875 156.921875 208.898438 152.75 207.269531 149.128906 C 207.25 149.066406 207.230469 149.007812 207.210938 148.945312 C 206.804688 147.988281 206.335938 147.054688 205.828125 146.160156 C 207.578125 145.75 209.40625 145.527344 211.277344 145.527344 C 223.28125 145.527344 233.128906 154.296875 234.738281 165.75 C 232.378906 165.894531 230.078125 166.421875 227.921875 167.296875 C 227.617188 167.378906 227.3125 167.519531 227.046875 167.683594 C 226.78125 167.804688 226.539062 167.96875 226.3125 168.152344 C 225.601562 168.621094 224.789062 168.824219 223.894531 168.679688 C 221.898438 168.355469 220.433594 166.402344 220.761719 164.144531 C 220.921875 163.003906 221.492188 162.128906 222.265625 161.558594 C 225.277344 159.320312 223.710938 154.539062 219.945312 154.519531 C 219.070312 154.5 218.21875 154.804688 217.523438 155.335938 C 215.164062 157.144531 213.496094 159.871094 213.027344 163.023438 C 212.113281 169.332031 216.367188 175.394531 222.671875 176.390625 C 225.582031 176.859375 228.472656 176.148438 230.75 174.582031 C 233.945312 173.257812 237.605469 173.09375 241.105469 174.480469 C 248.285156 177.308594 251.804688 185.363281 249 192.585938 C 248.308594 194.355469 247.308594 195.882812 246.089844 197.164062 C 244.867188 196.371094 243.402344 195.902344 241.859375 195.902344 C 237.503906 195.902344 233.902344 199.523438 233.902344 203.855469 C 233.902344 208.210938 237.503906 211.832031 241.859375 211.832031 C 246.050781 211.832031 249.546875 208.476562 249.792969 204.367188 C 252.601562 202.066406 254.878906 199.035156 256.28125 195.433594 C 260.617188 184.265625 255.082031 171.589844 243.972656 167.214844 C 243.546875 167.03125 243.121094 166.890625 242.691406 166.769531 C 241.511719 150.554688 227.859375 137.714844 211.277344 137.714844 C 207.554688 137.714844 203.953125 138.367188 200.617188 139.546875 C 198.015625 137.1875 194.921875 135.417969 191.382812 134.480469 C 187.71875 133.523438 183.996094 133.566406 180.4375 134.417969 C 176.9375 135.253906 173.601562 136.859375 170.609375 139.058594 C 170.527344 139.019531 170.445312 138.957031 170.367188 138.914062 C 167.699219 137.371094 164.769531 136.351562 161.699219 135.925781 C 158.605469 135.476562 155.390625 135.660156 152.199219 136.496094 C 143.734375 138.734375 137.527344 145.304688 135.289062 153.179688 C 133.398438 153.585938 131.546875 154.175781 129.777344 154.90625 C 126.011719 156.492188 122.617188 158.792969 119.765625 161.621094 C 116.917969 164.449219 114.621094 167.828125 113.011719 171.589844 C 111.425781 175.332031 110.53125 179.464844 110.53125 183.796875 C 110.53125 201.070312 124.691406 215.128906 142.003906 215.148438 C 142.167969 215.167969 142.308594 215.167969 142.453125 215.167969 C 156.511719 215.167969 167.800781 226.378906 167.863281 240.296875 C 167.863281 240.355469 167.863281 240.398438 167.863281 240.457031 C 167.863281 249.125 175.105469 255.738281 184.097656 257.242188 L 184.097656 302.714844 L 154.375 302.714844 L 154.375 287.070312 C 154.375 287.046875 154.375 287.046875 154.375 287.027344 C 154.375 267.253906 141.882812 256.773438 136.289062 253.03125 C 131.40625 249.753906 126.828125 246.011719 122.65625 241.863281 C 114.316406 233.601562 107.582031 223.753906 102.921875 212.828125 C 98.261719 201.902344 95.679688 189.878906 95.679688 177.265625 C 95.679688 126.769531 136.878906 85.875 187.820312 85.875 Z M 29.617188 91.347656 C 25.527344 91.207031 23.984375 96.660156 27.5625 98.671875 L 74.804688 125.914062 C 76.675781 127.015625 79.078125 126.382812 80.15625 124.511719 C 81.234375 122.621094 80.582031 120.21875 78.710938 119.160156 L 31.46875 91.898438 C 30.921875 91.574219 30.269531 91.371094 29.617188 91.347656 Z M 346.1875 91.347656 C 345.433594 91.328125 344.703125 91.511719 344.050781 91.898438 L 296.832031 119.160156 C 294.9375 120.21875 294.265625 122.640625 295.367188 124.511719 C 296.445312 126.402344 298.863281 127.035156 300.738281 125.9375 L 347.957031 98.671875 C 351.414062 96.742188 350.132812 91.492188 346.1875 91.347656 Z M 37.472656 142.476562 C 32.914062 142.578125 32.183594 149.046875 36.597656 150.167969 L 62.945312 157.207031 C 65.039062 157.835938 67.238281 156.597656 67.804688 154.480469 C 68.375 152.363281 67.09375 150.1875 64.957031 149.679688 L 38.609375 142.617188 C 38.246094 142.515625 37.859375 142.457031 37.472656 142.476562 Z M 337.949219 142.476562 C 337.601562 142.476562 337.253906 142.515625 336.910156 142.617188 L 310.582031 149.65625 C 308.445312 150.1875 307.144531 152.363281 307.714844 154.480469 C 308.285156 156.597656 310.503906 157.835938 312.597656 157.207031 L 338.945312 150.167969 C 343.421875 149.027344 342.566406 142.4375 337.949219 142.457031 Z M 174.007812 161.09375 C 172.296875 161.09375 170.773438 162.210938 170.285156 163.839844 C 168.289062 170.042969 168.617188 177.105469 171.667969 183.59375 C 174.699219 190.082031 179.90625 194.886719 185.949219 197.386719 C 187.964844 198.261719 190.285156 197.328125 191.117188 195.292969 C 191.953125 193.277344 190.976562 190.957031 188.921875 190.164062 C 184.707031 188.414062 180.964844 185.019531 178.746094 180.277344 C 178.625 180.035156 178.503906 179.75 178.402344 179.484375 C 182.835938 179.28125 187.027344 177.816406 190.464844 175.394531 C 193.558594 173.257812 192.175781 168.417969 188.410156 168.273438 C 187.535156 168.234375 186.660156 168.496094 185.949219 169.007812 C 183.46875 170.777344 180.253906 171.792969 176.855469 171.691406 C 176.875 169.800781 177.160156 167.96875 177.710938 166.238281 C 178.566406 163.695312 176.671875 161.070312 174.007812 161.09375 Z M 132.320312 173.542969 C 131.304688 173.503906 130.304688 173.867188 129.554688 174.558594 C 123.207031 180.136719 122.617188 189.941406 128.191406 196.289062 C 133.765625 202.65625 143.550781 203.328125 149.898438 197.734375 C 151.527344 196.308594 151.6875 193.847656 150.265625 192.21875 C 148.820312 190.59375 146.359375 190.449219 144.730469 191.875 C 141.578125 194.660156 136.855469 194.355469 134.070312 191.160156 C 131.261719 187.949219 131.566406 183.207031 134.722656 180.417969 C 137.425781 178.101562 135.878906 173.664062 132.320312 173.542969 Z M 201.839844 177.308594 C 199.03125 177.429688 197.28125 180.359375 198.460938 182.882812 C 200.027344 186.300781 202.226562 189.351562 204.929688 191.773438 C 201.757812 194.683594 199.664062 198.484375 198.6875 202.535156 C 198.15625 204.652344 199.457031 206.765625 201.574219 207.273438 C 203.691406 207.785156 205.804688 206.460938 206.292969 204.34375 C 207.066406 201.070312 208.960938 198.179688 211.707031 196.371094 C 211.828125 196.289062 211.929688 196.226562 212.03125 196.148438 C 213.089844 196.554688 214.1875 196.878906 215.347656 197.101562 C 223.039062 198.691406 230.808594 196.042969 236.996094 190.9375 C 238.703125 189.574219 238.96875 187.09375 237.585938 185.40625 C 236.179688 183.714844 233.699219 183.492188 232.03125 184.894531 C 227.269531 188.84375 221.898438 190.46875 216.914062 189.453125 C 211.910156 188.4375 208.003906 184.976562 205.582031 179.667969 C 204.929688 178.183594 203.445312 177.265625 201.839844 177.328125 Z M 59.605469 182.699219 C 59.605469 182.699219 59.585938 182.699219 59.566406 182.699219 L 5.042969 182.699219 C 2.824219 182.636719 1.011719 184.386719 1.011719 186.605469 C 1.011719 188.800781 2.824219 190.570312 5.042969 190.511719 L 59.566406 190.511719 C 61.761719 190.570312 63.59375 188.824219 63.59375 186.625 C 63.613281 184.429688 61.804688 182.65625 59.605469 182.699219 Z M 370.539062 182.699219 C 370.519531 182.699219 370.5 182.699219 370.5 182.699219 L 315.953125 182.699219 C 313.757812 182.636719 311.925781 184.386719 311.925781 186.605469 C 311.925781 188.800781 313.757812 190.570312 315.953125 190.511719 L 370.5 190.511719 C 372.675781 190.570312 374.507812 188.824219 374.507812 186.625 C 374.527344 184.429688 372.738281 182.65625 370.539062 182.699219 Z M 178.199219 211.464844 C 176.042969 211.445312 174.292969 213.195312 174.273438 215.351562 C 174.128906 222.878906 180.394531 229.023438 187.964844 229.105469 C 195.550781 229.167969 201.980469 223.207031 202.125 215.679688 C 202.164062 210.53125 194.453125 210.386719 194.3125 215.535156 C 194.25 218.6875 191.542969 221.3125 188.046875 221.292969 C 184.566406 221.253906 182.023438 218.648438 182.085938 215.496094 C 182.164062 213.296875 180.394531 211.464844 178.199219 211.464844 Z M 63.980469 215.839844 C 63.636719 215.839844 63.269531 215.902344 62.945312 215.984375 L 36.597656 223.042969 C 34.5 223.59375 33.238281 225.75 33.789062 227.84375 C 34.359375 229.941406 36.515625 231.179688 38.609375 230.589844 L 64.957031 223.53125 C 69.433594 222.390625 68.597656 215.820312 63.980469 215.839844 Z M 311.4375 215.839844 C 306.902344 215.941406 306.167969 222.433594 310.582031 223.53125 L 336.910156 230.589844 C 341.957031 231.933594 343.96875 224.386719 338.945312 223.042969 L 312.597656 216.003906 C 312.230469 215.882812 311.824219 215.839844 311.4375 215.839844 Z M 154.332031 310.546875 L 219.824219 310.546875 L 219.824219 335.082031 C 219.824219 352.90625 205.316406 367.1875 187.070312 367.1875 C 168.820312 367.1875 154.332031 352.90625 154.332031 335.082031 Z M 164.199219 324.484375 C 159.035156 324.523438 159.035156 332.253906 164.199219 332.296875 L 209.9375 332.296875 C 212.113281 332.316406 213.882812 330.566406 213.882812 328.390625 C 213.882812 326.210938 212.113281 324.460938 209.9375 324.484375 Z M 203.773438 341.714844 C 203.75 341.714844 203.730469 341.714844 203.710938 341.714844 L 170.40625 341.714844 C 168.207031 341.632812 166.359375 343.402344 166.359375 345.601562 C 166.359375 347.820312 168.207031 349.589844 170.40625 349.507812 L 203.710938 349.507812 C 205.929688 349.589844 207.757812 347.839844 207.757812 345.640625 C 207.78125 343.425781 205.96875 341.65625 203.773438 341.714844 Z M 203.773438 341.714844 " fill-opacity="1" fill-rule="nonzero"/></svg>