<svg xmlns="http://www.w3.org/2000/svg" xmlns:xlink="http://www.w3.org/1999/xlink" width="400" zoomAndPan="magnify" viewBox="0 0 300 299.999988" height="400" preserveAspectRatio="xMidYMid meet" version="1.0"><defs><clipPath id="9944f69ae0"><path d="M 30 1.015625 L 270.75 1.015625 L 270.75 300 L 30 300 Z M 30 1.015625 " clip-rule="nonzero"/></clipPath></defs><g clip-path="url(#9944f69ae0)"><path fill="#000000" d="M 225.488281 213.597656 L 184.078125 204.390625 L 184.078125 194.316406 C 190.90625 190.359375 196.859375 185.359375 201.945312 179.324219 L 217.785156 179.324219 C 218.734375 179.324219 219.671875 179.230469 220.601562 179.046875 C 221.535156 178.859375 222.4375 178.585938 223.3125 178.222656 C 224.1875 177.859375 225.023438 177.414062 225.808594 176.886719 C 226.597656 176.359375 227.328125 175.757812 228 175.085938 C 228.667969 174.414062 229.269531 173.683594 229.796875 172.894531 C 230.324219 172.105469 230.765625 171.273438 231.128906 170.394531 C 231.492188 169.519531 231.765625 168.613281 231.953125 167.683594 C 232.136719 166.75 232.230469 165.8125 232.230469 164.859375 L 232.230469 160.039062 C 233.179688 160.039062 234.117188 159.949219 235.046875 159.761719 C 235.976562 159.578125 236.882812 159.304688 237.757812 158.941406 C 238.632812 158.578125 239.464844 158.132812 240.253906 157.605469 C 241.042969 157.074219 241.773438 156.476562 242.445312 155.804688 C 243.113281 155.132812 243.714844 154.402344 244.242188 153.613281 C 244.765625 152.824219 245.210938 151.992188 245.574219 151.113281 C 245.9375 150.234375 246.210938 149.332031 246.398438 148.402344 C 246.582031 147.46875 246.675781 146.527344 246.675781 145.578125 L 246.675781 116.65625 C 246.671875 115.914062 246.613281 115.175781 246.5 114.445312 C 246.382812 113.710938 246.214844 112.992188 245.988281 112.289062 C 245.761719 111.582031 245.484375 110.894531 245.152344 110.234375 C 244.820312 109.570312 244.441406 108.9375 244.011719 108.332031 C 243.585938 107.726562 243.113281 107.15625 242.597656 106.625 C 242.082031 106.09375 241.527344 105.605469 240.9375 105.15625 C 240.34375 104.710938 239.722656 104.3125 239.070312 103.960938 C 238.417969 103.609375 237.742188 103.308594 237.046875 103.0625 L 237.046875 87.734375 C 237.046875 86.3125 237.011719 84.894531 236.941406 83.476562 C 236.871094 82.058594 236.765625 80.640625 236.628906 79.226562 C 236.488281 77.816406 236.316406 76.40625 236.105469 75 C 235.898438 73.597656 235.65625 72.199219 235.378906 70.804688 C 235.101562 69.414062 234.792969 68.027344 234.449219 66.648438 C 234.101562 65.273438 233.726562 63.902344 233.3125 62.546875 C 232.902344 61.1875 232.457031 59.839844 231.980469 58.5 C 231.5 57.164062 230.992188 55.839844 230.449219 54.527344 C 229.90625 53.214844 229.332031 51.917969 228.722656 50.632812 C 228.117188 49.351562 227.480469 48.082031 226.8125 46.832031 C 226.140625 45.578125 225.445312 44.34375 224.714844 43.125 C 223.984375 41.90625 223.226562 40.707031 222.4375 39.527344 C 221.652344 38.347656 220.832031 37.183594 219.988281 36.042969 C 219.144531 34.902344 218.273438 33.785156 217.371094 32.6875 C 216.472656 31.589844 215.546875 30.515625 214.59375 29.460938 C 213.640625 28.410156 212.664062 27.382812 211.660156 26.378906 C 210.65625 25.375 209.628906 24.394531 208.578125 23.441406 C 207.527344 22.488281 206.453125 21.558594 205.359375 20.660156 C 204.261719 19.757812 203.144531 18.886719 202.003906 18.039062 C 200.863281 17.195312 199.707031 16.375 198.527344 15.585938 C 197.347656 14.796875 196.148438 14.039062 194.933594 13.308594 C 193.714844 12.578125 192.480469 11.878906 191.230469 11.210938 C 189.980469 10.539062 188.714844 9.902344 187.429688 9.292969 C 186.148438 8.6875 184.851562 8.113281 183.542969 7.570312 C 182.230469 7.023438 180.910156 6.515625 179.574219 6.035156 C 178.238281 5.558594 176.890625 5.113281 175.535156 4.699219 C 174.175781 4.289062 172.808594 3.910156 171.433594 3.5625 C 170.058594 3.21875 168.675781 2.90625 167.285156 2.632812 C 165.890625 2.355469 164.496094 2.113281 163.09375 1.902344 C 161.6875 1.695312 160.28125 1.519531 158.871094 1.382812 C 157.457031 1.242188 156.042969 1.136719 154.628906 1.070312 C 153.210938 1 151.792969 0.964844 150.375 0.964844 C 148.957031 0.964844 147.539062 1 146.121094 1.070312 C 144.707031 1.136719 143.292969 1.242188 141.878906 1.382812 C 140.46875 1.519531 139.0625 1.695312 137.65625 1.902344 C 136.253906 2.113281 134.859375 2.355469 133.464844 2.632812 C 132.074219 2.90625 130.691406 3.21875 129.316406 3.5625 C 127.941406 3.910156 126.574219 4.289062 125.214844 4.699219 C 123.859375 5.113281 122.511719 5.558594 121.175781 6.035156 C 119.839844 6.515625 118.519531 7.023438 117.207031 7.570312 C 115.898438 8.113281 114.601562 8.6875 113.320312 9.292969 C 112.035156 9.902344 110.769531 10.539062 109.519531 11.210938 C 108.269531 11.878906 107.035156 12.578125 105.816406 13.308594 C 104.601562 14.039062 103.402344 14.796875 102.222656 15.585938 C 101.042969 16.375 99.886719 17.195312 98.746094 18.039062 C 97.605469 18.886719 96.488281 19.757812 95.390625 20.660156 C 94.296875 21.558594 93.222656 22.488281 92.171875 23.441406 C 91.121094 24.394531 90.09375 25.375 89.089844 26.378906 C 88.085938 27.382812 87.109375 28.410156 86.15625 29.460938 C 85.203125 30.515625 84.277344 31.589844 83.378906 32.6875 C 82.476562 33.785156 81.605469 34.902344 80.761719 36.042969 C 79.917969 37.183594 79.097656 38.347656 78.3125 39.527344 C 77.523438 40.707031 76.765625 41.90625 76.035156 43.125 C 75.304688 44.34375 74.609375 45.578125 73.9375 46.832031 C 73.269531 48.082031 72.632812 49.351562 72.027344 50.632812 C 71.417969 51.917969 70.84375 53.214844 70.300781 54.527344 C 69.757812 55.839844 69.25 57.164062 68.769531 58.5 C 68.292969 59.839844 67.847656 61.1875 67.4375 62.546875 C 67.023438 63.902344 66.648438 65.273438 66.300781 66.648438 C 65.957031 68.027344 65.648438 69.414062 65.371094 70.804688 C 65.09375 72.199219 64.851562 73.597656 64.644531 75 C 64.433594 76.40625 64.261719 77.816406 64.121094 79.226562 C 63.984375 80.640625 63.878906 82.058594 63.808594 83.476562 C 63.738281 84.894531 63.703125 86.3125 63.703125 87.734375 L 63.703125 103.0625 C 63.007812 103.308594 62.332031 103.609375 61.679688 103.960938 C 61.027344 104.3125 60.40625 104.710938 59.8125 105.15625 C 59.222656 105.605469 58.667969 106.09375 58.152344 106.625 C 57.636719 107.15625 57.164062 107.726562 56.738281 108.332031 C 56.308594 108.9375 55.929688 109.570312 55.597656 110.234375 C 55.265625 110.894531 54.988281 111.582031 54.761719 112.289062 C 54.535156 112.992188 54.367188 113.710938 54.25 114.445312 C 54.136719 115.175781 54.078125 115.914062 54.074219 116.65625 L 54.074219 145.578125 C 54.074219 146.527344 54.167969 147.46875 54.351562 148.402344 C 54.539062 149.332031 54.8125 150.234375 55.175781 151.113281 C 55.539062 151.992188 55.984375 152.824219 56.507812 153.613281 C 57.035156 154.402344 57.636719 155.132812 58.304688 155.804688 C 58.976562 156.476562 59.707031 157.074219 60.496094 157.605469 C 61.285156 158.132812 62.117188 158.578125 62.992188 158.941406 C 63.867188 159.304688 64.773438 159.578125 65.703125 159.761719 C 66.632812 159.949219 67.570312 160.039062 68.519531 160.039062 L 87.492188 160.039062 C 88.867188 163.617188 90.535156 167.054688 92.492188 170.351562 C 94.453125 173.644531 96.675781 176.753906 99.160156 179.671875 C 101.644531 182.589844 104.355469 185.277344 107.292969 187.734375 C 110.234375 190.195312 113.359375 192.386719 116.671875 194.316406 L 116.671875 204.390625 L 75.261719 213.597656 C 73.667969 213.941406 72.09375 214.355469 70.535156 214.835938 C 68.976562 215.316406 67.441406 215.863281 65.929688 216.472656 C 64.417969 217.085938 62.933594 217.757812 61.480469 218.496094 C 60.027344 219.234375 58.605469 220.03125 57.21875 220.890625 C 55.832031 221.75 54.488281 222.667969 53.179688 223.640625 C 51.871094 224.613281 50.605469 225.640625 49.382812 226.722656 C 48.164062 227.804688 46.988281 228.933594 45.863281 230.117188 C 44.738281 231.296875 43.667969 232.523438 42.648438 233.796875 C 41.625 235.070312 40.660156 236.382812 39.753906 237.738281 C 38.84375 239.09375 37.996094 240.484375 37.203125 241.914062 C 36.414062 243.339844 35.683594 244.796875 35.019531 246.289062 C 34.351562 247.777344 33.75 249.292969 33.210938 250.832031 C 32.675781 252.375 32.203125 253.933594 31.800781 255.515625 C 31.394531 257.097656 31.058594 258.691406 30.789062 260.300781 C 30.519531 261.910156 30.320312 263.53125 30.1875 265.15625 C 30.054688 266.785156 29.992188 268.414062 30 270.046875 L 30 295.015625 C 30 295.332031 30.03125 295.644531 30.09375 295.957031 C 30.152344 296.265625 30.246094 296.566406 30.367188 296.859375 C 30.488281 297.152344 30.636719 297.429688 30.8125 297.691406 C 30.988281 297.957031 31.1875 298.199219 31.410156 298.421875 C 31.632812 298.648438 31.878906 298.847656 32.140625 299.023438 C 32.402344 299.199219 32.679688 299.347656 32.972656 299.46875 C 33.265625 299.589844 33.566406 299.679688 33.875 299.742188 C 34.1875 299.804688 34.5 299.835938 34.816406 299.835938 L 265.933594 299.835938 C 266.25 299.835938 266.5625 299.804688 266.875 299.742188 C 267.183594 299.679688 267.484375 299.589844 267.777344 299.46875 C 268.070312 299.347656 268.347656 299.199219 268.609375 299.023438 C 268.871094 298.847656 269.117188 298.648438 269.339844 298.421875 C 269.5625 298.199219 269.761719 297.957031 269.9375 297.691406 C 270.113281 297.429688 270.261719 297.152344 270.382812 296.859375 C 270.503906 296.566406 270.597656 296.265625 270.65625 295.957031 C 270.71875 295.644531 270.75 295.332031 270.75 295.015625 L 270.75 270.046875 C 270.757812 268.414062 270.695312 266.785156 270.5625 265.15625 C 270.429688 263.53125 270.230469 261.910156 269.960938 260.300781 C 269.691406 258.691406 269.355469 257.097656 268.949219 255.515625 C 268.546875 253.933594 268.074219 252.375 267.539062 250.832031 C 267 249.292969 266.398438 247.777344 265.730469 246.289062 C 265.066406 244.796875 264.335938 243.339844 263.546875 241.914062 C 262.753906 240.484375 261.90625 239.09375 260.996094 237.738281 C 260.089844 236.382812 259.125 235.070312 258.101562 233.796875 C 257.082031 232.523438 256.011719 231.296875 254.886719 230.117188 C 253.761719 228.933594 252.585938 227.804688 251.367188 226.722656 C 250.144531 225.640625 248.878906 224.613281 247.570312 223.640625 C 246.261719 222.667969 244.917969 221.75 243.53125 220.890625 C 242.144531 220.03125 240.722656 219.234375 239.269531 218.496094 C 237.816406 217.757812 236.332031 217.085938 234.820312 216.472656 C 233.308594 215.863281 231.773438 215.316406 230.214844 214.835938 C 228.65625 214.355469 227.082031 213.941406 225.488281 213.597656 Z M 191.109375 215.8125 L 172.859375 245.074219 L 158.128906 236.203125 L 180.804688 213.546875 Z M 222.601562 164.859375 C 222.601562 165.179688 222.570312 165.492188 222.507812 165.800781 C 222.445312 166.113281 222.355469 166.414062 222.234375 166.707031 C 222.113281 167 221.964844 167.277344 221.789062 167.539062 C 221.613281 167.800781 221.414062 168.046875 221.191406 168.269531 C 220.964844 168.492188 220.722656 168.695312 220.460938 168.871094 C 220.195312 169.046875 219.917969 169.195312 219.628906 169.316406 C 219.335938 169.4375 219.035156 169.527344 218.722656 169.589844 C 218.414062 169.652344 218.101562 169.683594 217.785156 169.683594 L 208.683594 169.683594 C 210.546875 166.597656 212.148438 163.382812 213.5 160.039062 L 222.601562 160.039062 Z M 208.15625 102.195312 L 192.890625 102.195312 C 190.960938 102.195312 189.042969 102.074219 187.128906 101.828125 C 185.214844 101.582031 183.324219 101.214844 181.460938 100.722656 C 179.59375 100.234375 177.769531 99.625 175.980469 98.902344 C 174.191406 98.175781 172.457031 97.339844 170.777344 96.390625 C 169.097656 95.441406 167.484375 94.390625 165.941406 93.234375 C 164.394531 92.078125 162.929688 90.828125 161.546875 89.484375 C 160.160156 88.140625 158.871094 86.710938 157.667969 85.199219 C 156.46875 83.6875 155.367188 82.105469 154.371094 80.453125 C 154.265625 80.273438 154.148438 80.105469 154.019531 79.941406 C 153.890625 79.777344 153.753906 79.621094 153.605469 79.476562 C 153.457031 79.328125 153.300781 79.195312 153.132812 79.066406 C 152.96875 78.941406 152.792969 78.828125 152.613281 78.726562 C 152.433594 78.621094 152.246094 78.53125 152.054688 78.453125 C 151.859375 78.375 151.664062 78.308594 151.464844 78.253906 C 151.261719 78.199219 151.058594 78.160156 150.851562 78.132812 C 150.644531 78.105469 150.4375 78.09375 150.230469 78.09375 C 150.023438 78.09375 149.816406 78.105469 149.609375 78.132812 C 149.402344 78.160156 149.199219 78.199219 149 78.253906 C 148.796875 78.308594 148.601562 78.375 148.40625 78.453125 C 148.214844 78.53125 148.027344 78.621094 147.847656 78.726562 C 147.667969 78.828125 147.492188 78.941406 147.328125 79.066406 C 147.160156 79.195312 147.003906 79.328125 146.855469 79.476562 C 146.707031 79.621094 146.570312 79.777344 146.441406 79.941406 C 146.3125 80.105469 146.195312 80.273438 146.089844 80.453125 C 145.09375 82.105469 143.992188 83.6875 142.792969 85.199219 C 141.589844 86.710938 140.300781 88.140625 138.914062 89.484375 C 137.53125 90.828125 136.066406 92.078125 134.519531 93.234375 C 132.976562 94.390625 131.363281 95.441406 129.683594 96.390625 C 128.003906 97.339844 126.269531 98.175781 124.480469 98.902344 C 122.691406 99.625 120.867188 100.234375 119 100.722656 C 117.136719 101.214844 115.246094 101.582031 113.332031 101.828125 C 111.417969 102.074219 109.5 102.195312 107.570312 102.195312 L 92.59375 102.195312 L 92.59375 87.734375 C 92.59375 85.839844 92.6875 83.949219 92.875 82.0625 C 93.058594 80.179688 93.335938 78.304688 93.707031 76.449219 C 94.074219 74.589844 94.535156 72.753906 95.082031 70.941406 C 95.632812 69.128906 96.269531 67.347656 96.992188 65.597656 C 97.71875 63.847656 98.527344 62.136719 99.417969 60.464844 C 100.308594 58.792969 101.28125 57.171875 102.332031 55.59375 C 103.382812 54.019531 104.511719 52.5 105.710938 51.035156 C 106.910156 49.570312 108.179688 48.167969 109.519531 46.828125 C 110.855469 45.488281 112.257812 44.21875 113.71875 43.015625 C 115.183594 41.816406 116.699219 40.6875 118.273438 39.636719 C 119.847656 38.582031 121.46875 37.609375 123.136719 36.71875 C 124.804688 35.824219 126.515625 35.015625 128.261719 34.289062 C 130.011719 33.566406 131.792969 32.925781 133.601562 32.378906 C 135.414062 31.828125 137.246094 31.367188 139.101562 31 C 140.957031 30.628906 142.828125 30.351562 144.710938 30.164062 C 146.59375 29.980469 148.484375 29.886719 150.375 29.886719 C 152.265625 29.886719 154.15625 29.980469 156.039062 30.164062 C 157.921875 30.351562 159.792969 30.628906 161.648438 31 C 163.503906 31.367188 165.335938 31.828125 167.148438 32.378906 C 168.957031 32.925781 170.738281 33.566406 172.488281 34.289062 C 174.234375 35.015625 175.941406 35.824219 177.613281 36.71875 C 179.28125 37.609375 180.902344 38.582031 182.476562 39.636719 C 184.050781 40.6875 185.566406 41.816406 187.03125 43.015625 C 188.492188 44.21875 189.894531 45.488281 191.230469 46.828125 C 192.570312 48.167969 193.839844 49.570312 195.039062 51.035156 C 196.238281 52.5 197.367188 54.019531 198.417969 55.59375 C 199.46875 57.171875 200.441406 58.792969 201.332031 60.464844 C 202.222656 62.136719 203.03125 63.847656 203.757812 65.597656 C 204.480469 67.347656 205.117188 69.128906 205.667969 70.941406 C 206.214844 72.753906 206.675781 74.589844 207.042969 76.449219 C 207.414062 78.304688 207.691406 80.179688 207.875 82.0625 C 208.0625 83.949219 208.15625 85.839844 208.15625 87.734375 Z M 237.046875 145.578125 C 237.046875 145.894531 237.015625 146.210938 236.953125 146.519531 C 236.890625 146.832031 236.800781 147.132812 236.679688 147.425781 C 236.558594 147.714844 236.410156 147.996094 236.234375 148.257812 C 236.058594 148.519531 235.859375 148.765625 235.632812 148.988281 C 235.410156 149.210938 235.167969 149.410156 234.90625 149.585938 C 234.640625 149.761719 234.363281 149.910156 234.074219 150.03125 C 233.78125 150.152344 233.480469 150.246094 233.167969 150.308594 C 232.859375 150.367188 232.546875 150.398438 232.230469 150.398438 L 216.195312 150.398438 C 217.242188 145.636719 217.773438 140.816406 217.785156 135.9375 L 217.785156 111.835938 L 232.230469 111.835938 C 232.546875 111.835938 232.859375 111.867188 233.167969 111.929688 C 233.480469 111.988281 233.78125 112.082031 234.074219 112.203125 C 234.363281 112.324219 234.640625 112.472656 234.90625 112.648438 C 235.167969 112.824219 235.410156 113.023438 235.632812 113.246094 C 235.859375 113.472656 236.058594 113.714844 236.234375 113.976562 C 236.410156 114.242188 236.558594 114.519531 236.679688 114.8125 C 236.800781 115.105469 236.890625 115.40625 236.953125 115.714844 C 237.015625 116.027344 237.046875 116.339844 237.046875 116.65625 Z M 150.375 10.605469 C 151.636719 10.605469 152.894531 10.636719 154.15625 10.699219 C 155.414062 10.757812 156.671875 10.851562 157.925781 10.976562 C 159.179688 11.101562 160.433594 11.253906 161.679688 11.441406 C 162.925781 11.625 164.167969 11.839844 165.40625 12.085938 C 166.640625 12.332031 167.871094 12.609375 169.09375 12.917969 C 170.316406 13.222656 171.53125 13.558594 172.738281 13.925781 C 173.945312 14.292969 175.140625 14.6875 176.328125 15.113281 C 177.515625 15.539062 178.691406 15.992188 179.855469 16.476562 C 181.023438 16.957031 182.175781 17.46875 183.3125 18.011719 C 184.453125 18.550781 185.578125 19.117188 186.691406 19.710938 C 187.804688 20.308594 188.898438 20.929688 189.980469 21.578125 C 191.0625 22.226562 192.128906 22.902344 193.175781 23.601562 C 194.222656 24.304688 195.253906 25.03125 196.269531 25.78125 C 197.28125 26.535156 198.273438 27.3125 199.25 28.113281 C 200.222656 28.914062 201.175781 29.738281 202.113281 30.585938 C 203.046875 31.433594 203.957031 32.300781 204.851562 33.195312 C 205.742188 34.085938 206.609375 35 207.457031 35.9375 C 208.304688 36.871094 209.128906 37.828125 209.925781 38.804688 C 210.726562 39.777344 211.503906 40.773438 212.253906 41.789062 C 213.003906 42.800781 213.730469 43.832031 214.429688 44.882812 C 215.132812 45.933594 215.804688 47 216.453125 48.082031 C 217.101562 49.164062 217.722656 50.261719 218.316406 51.375 C 218.914062 52.488281 219.480469 53.617188 220.019531 54.757812 C 220.558594 55.898438 221.066406 57.050781 221.550781 58.21875 C 222.03125 59.382812 222.488281 60.5625 222.910156 61.75 C 223.335938 62.9375 223.730469 64.136719 224.097656 65.34375 C 224.464844 66.550781 224.800781 67.769531 225.105469 68.992188 C 225.414062 70.21875 225.6875 71.449219 225.933594 72.6875 C 226.179688 73.925781 226.394531 75.167969 226.582031 76.417969 C 226.765625 77.664062 226.921875 78.917969 227.042969 80.171875 C 227.167969 81.429688 227.261719 82.6875 227.320312 83.949219 C 227.382812 85.210938 227.414062 86.472656 227.414062 87.734375 L 227.414062 102.195312 L 217.785156 102.195312 L 217.785156 87.734375 C 217.785156 86.628906 217.757812 85.523438 217.703125 84.421875 C 217.648438 83.320312 217.570312 82.21875 217.460938 81.117188 C 217.351562 80.019531 217.21875 78.921875 217.054688 77.832031 C 216.894531 76.738281 216.703125 75.648438 216.488281 74.566406 C 216.273438 73.484375 216.03125 72.40625 215.765625 71.335938 C 215.496094 70.261719 215.203125 69.199219 214.882812 68.144531 C 214.5625 67.085938 214.214844 66.039062 213.84375 64.996094 C 213.472656 63.957031 213.074219 62.925781 212.652344 61.90625 C 212.230469 60.886719 211.785156 59.878906 211.3125 58.878906 C 210.839844 57.878906 210.34375 56.894531 209.824219 55.917969 C 209.304688 54.945312 208.761719 53.984375 208.195312 53.039062 C 207.628906 52.089844 207.039062 51.15625 206.425781 50.238281 C 205.8125 49.320312 205.175781 48.417969 204.519531 47.53125 C 203.863281 46.644531 203.183594 45.773438 202.484375 44.917969 C 201.785156 44.066406 201.0625 43.230469 200.324219 42.410156 C 199.582031 41.59375 198.820312 40.792969 198.042969 40.011719 C 197.261719 39.230469 196.460938 38.46875 195.644531 37.726562 C 194.828125 36.988281 193.992188 36.265625 193.140625 35.566406 C 192.285156 34.863281 191.417969 34.183594 190.53125 33.527344 C 189.644531 32.867188 188.742188 32.234375 187.824219 31.621094 C 186.910156 31.007812 185.976562 30.414062 185.03125 29.847656 C 184.085938 29.28125 183.125 28.734375 182.152344 28.214844 C 181.179688 27.695312 180.195312 27.199219 179.195312 26.726562 C 178.199219 26.253906 177.191406 25.804688 176.171875 25.382812 C 175.152344 24.960938 174.125 24.5625 173.085938 24.191406 C 172.046875 23.820312 171 23.472656 169.941406 23.152344 C 168.886719 22.832031 167.824219 22.535156 166.753906 22.269531 C 165.683594 22 164.609375 21.757812 163.527344 21.542969 C 162.445312 21.328125 161.355469 21.136719 160.265625 20.976562 C 159.175781 20.8125 158.082031 20.679688 156.980469 20.570312 C 155.882812 20.460938 154.785156 20.382812 153.683594 20.328125 C 152.582031 20.273438 151.476562 20.246094 150.375 20.246094 C 149.273438 20.246094 148.167969 20.273438 147.066406 20.328125 C 145.964844 20.382812 144.867188 20.460938 143.769531 20.570312 C 142.667969 20.679688 141.574219 20.8125 140.484375 20.976562 C 139.394531 21.136719 138.304688 21.328125 137.222656 21.542969 C 136.140625 21.757812 135.066406 22 133.996094 22.269531 C 132.925781 22.535156 131.863281 22.832031 130.808594 23.152344 C 129.75 23.472656 128.703125 23.820312 127.664062 24.191406 C 126.625 24.5625 125.597656 24.960938 124.578125 25.382812 C 123.558594 25.804688 122.550781 26.253906 121.554688 26.726562 C 120.554688 27.199219 119.570312 27.695312 118.597656 28.214844 C 117.625 28.734375 116.664062 29.28125 115.71875 29.847656 C 114.773438 30.414062 113.839844 31.007812 112.925781 31.621094 C 112.007812 32.234375 111.105469 32.867188 110.21875 33.527344 C 109.332031 34.183594 108.464844 34.863281 107.609375 35.566406 C 106.757812 36.265625 105.921875 36.988281 105.105469 37.726562 C 104.289062 38.46875 103.488281 39.230469 102.707031 40.011719 C 101.929688 40.792969 101.167969 41.59375 100.425781 42.410156 C 99.6875 43.230469 98.964844 44.066406 98.265625 44.917969 C 97.566406 45.773438 96.886719 46.644531 96.230469 47.53125 C 95.574219 48.417969 94.9375 49.320312 94.324219 50.238281 C 93.710938 51.15625 93.121094 52.089844 92.554688 53.039062 C 91.988281 53.984375 91.445312 54.945312 90.925781 55.917969 C 90.40625 56.894531 89.910156 57.878906 89.4375 58.878906 C 88.964844 59.878906 88.519531 60.886719 88.097656 61.90625 C 87.675781 62.925781 87.277344 63.957031 86.90625 64.996094 C 86.535156 66.039062 86.1875 67.085938 85.867188 68.144531 C 85.546875 69.199219 85.253906 70.261719 84.984375 71.335938 C 84.71875 72.40625 84.476562 73.484375 84.261719 74.566406 C 84.046875 75.648438 83.855469 76.738281 83.695312 77.832031 C 83.53125 78.921875 83.398438 80.019531 83.289062 81.117188 C 83.179688 82.21875 83.101562 83.320312 83.046875 84.421875 C 82.992188 85.523438 82.964844 86.628906 82.964844 87.734375 L 82.964844 102.195312 L 73.335938 102.195312 L 73.335938 87.734375 C 73.335938 86.472656 73.367188 85.210938 73.429688 83.949219 C 73.488281 82.6875 73.582031 81.429688 73.707031 80.171875 C 73.828125 78.917969 73.984375 77.664062 74.167969 76.417969 C 74.355469 75.167969 74.570312 73.925781 74.816406 72.6875 C 75.0625 71.449219 75.335938 70.21875 75.644531 68.992188 C 75.949219 67.769531 76.285156 66.550781 76.652344 65.34375 C 77.019531 64.136719 77.414062 62.9375 77.839844 61.75 C 78.261719 60.5625 78.71875 59.382812 79.199219 58.21875 C 79.683594 57.050781 80.191406 55.898438 80.730469 54.757812 C 81.269531 53.617188 81.835938 52.488281 82.433594 51.375 C 83.027344 50.261719 83.648438 49.164062 84.296875 48.082031 C 84.945312 47 85.617188 45.933594 86.320312 44.882812 C 87.019531 43.832031 87.746094 42.800781 88.496094 41.789062 C 89.246094 40.773438 90.023438 39.777344 90.824219 38.804688 C 91.621094 37.828125 92.445312 36.871094 93.292969 35.9375 C 94.140625 35 95.007812 34.085938 95.898438 33.195312 C 96.789062 32.300781 97.703125 31.433594 98.636719 30.585938 C 99.574219 29.738281 100.527344 28.914062 101.5 28.113281 C 102.476562 27.3125 103.46875 26.535156 104.480469 25.78125 C 105.496094 25.03125 106.527344 24.304688 107.574219 23.601562 C 108.621094 22.902344 109.6875 22.226562 110.769531 21.578125 C 111.851562 20.929688 112.945312 20.308594 114.058594 19.710938 C 115.171875 19.117188 116.296875 18.550781 117.4375 18.011719 C 118.574219 17.46875 119.726562 16.957031 120.894531 16.476562 C 122.058594 15.992188 123.234375 15.539062 124.421875 15.113281 C 125.609375 14.6875 126.804688 14.292969 128.011719 13.925781 C 129.21875 13.558594 130.433594 13.222656 131.65625 12.917969 C 132.878906 12.609375 134.109375 12.332031 135.34375 12.085938 C 136.582031 11.839844 137.824219 11.625 139.070312 11.441406 C 140.316406 11.253906 141.570312 11.101562 142.824219 10.976562 C 144.078125 10.851562 145.335938 10.757812 146.59375 10.699219 C 147.855469 10.636719 149.113281 10.605469 150.375 10.605469 Z M 68.519531 150.398438 C 68.203125 150.398438 67.890625 150.367188 67.582031 150.308594 C 67.269531 150.246094 66.96875 150.152344 66.675781 150.03125 C 66.386719 149.910156 66.109375 149.761719 65.84375 149.585938 C 65.582031 149.410156 65.339844 149.210938 65.117188 148.988281 C 64.890625 148.765625 64.691406 148.519531 64.515625 148.257812 C 64.339844 147.996094 64.191406 147.714844 64.070312 147.425781 C 63.949219 147.132812 63.859375 146.832031 63.796875 146.519531 C 63.734375 146.210938 63.703125 145.894531 63.703125 145.578125 L 63.703125 116.65625 C 63.703125 116.339844 63.734375 116.027344 63.796875 115.714844 C 63.859375 115.40625 63.949219 115.105469 64.070312 114.8125 C 64.191406 114.519531 64.339844 114.242188 64.515625 113.976562 C 64.691406 113.714844 64.890625 113.472656 65.117188 113.246094 C 65.339844 113.023438 65.582031 112.824219 65.84375 112.648438 C 66.109375 112.472656 66.386719 112.324219 66.675781 112.203125 C 66.96875 112.082031 67.269531 111.988281 67.582031 111.929688 C 67.890625 111.867188 68.203125 111.835938 68.519531 111.835938 L 82.964844 111.835938 L 82.964844 135.9375 C 82.976562 140.816406 83.507812 145.636719 84.554688 150.398438 Z M 92.59375 135.9375 L 92.59375 111.835938 L 107.859375 111.835938 C 109.894531 111.828125 111.921875 111.710938 113.941406 111.476562 C 115.964844 111.246094 117.964844 110.902344 119.949219 110.445312 C 121.933594 109.988281 123.882812 109.421875 125.804688 108.75 C 127.722656 108.074219 129.601562 107.296875 131.433594 106.414062 C 133.269531 105.53125 135.046875 104.546875 136.769531 103.464844 C 138.496094 102.382812 140.152344 101.207031 141.746094 99.941406 C 143.339844 98.675781 144.855469 97.320312 146.300781 95.886719 C 147.742188 94.449219 149.101562 92.9375 150.375 91.347656 C 151.648438 92.9375 153.007812 94.449219 154.449219 95.886719 C 155.894531 97.320312 157.410156 98.675781 159.003906 99.941406 C 160.597656 101.207031 162.253906 102.382812 163.980469 103.464844 C 165.703125 104.546875 167.480469 105.53125 169.316406 106.414062 C 171.148438 107.296875 173.027344 108.074219 174.945312 108.75 C 176.867188 109.421875 178.816406 109.988281 180.800781 110.445312 C 182.785156 110.902344 184.785156 111.246094 186.808594 111.476562 C 188.828125 111.710938 190.855469 111.828125 192.890625 111.835938 L 208.15625 111.835938 L 208.15625 135.9375 C 208.148438 138.949219 207.910156 141.941406 207.4375 144.914062 C 206.964844 147.886719 206.265625 150.804688 205.335938 153.667969 C 204.410156 156.535156 203.265625 159.308594 201.90625 161.992188 C 200.546875 164.675781 198.984375 167.242188 197.226562 169.683594 L 163.953125 169.683594 C 163.765625 169.152344 163.546875 168.632812 163.300781 168.125 C 163.050781 167.621094 162.773438 167.132812 162.46875 166.65625 C 162.164062 166.183594 161.832031 165.730469 161.472656 165.296875 C 161.117188 164.863281 160.734375 164.449219 160.328125 164.058594 C 159.921875 163.671875 159.492188 163.304688 159.042969 162.964844 C 158.597656 162.625 158.128906 162.3125 157.644531 162.027344 C 157.15625 161.742188 156.65625 161.488281 156.140625 161.261719 C 155.628906 161.035156 155.101562 160.839844 154.5625 160.675781 C 154.023438 160.507812 153.476562 160.375 152.925781 160.273438 C 152.371094 160.175781 151.8125 160.105469 151.25 160.070312 C 150.691406 160.035156 150.128906 160.03125 149.566406 160.0625 C 149.003906 160.089844 148.445312 160.152344 147.890625 160.25 C 147.335938 160.34375 146.789062 160.472656 146.25 160.632812 C 145.710938 160.789062 145.183594 160.980469 144.664062 161.203125 C 144.148438 161.421875 143.644531 161.671875 143.15625 161.953125 C 142.667969 162.234375 142.195312 162.539062 141.746094 162.875 C 141.292969 163.210938 140.859375 163.570312 140.449219 163.957031 C 140.039062 164.34375 139.652344 164.75 139.289062 165.179688 C 138.925781 165.613281 138.589844 166.0625 138.28125 166.53125 C 137.972656 167.003906 137.6875 167.488281 137.4375 167.992188 C 137.183594 168.496094 136.960938 169.011719 136.765625 169.539062 C 136.574219 170.070312 136.410156 170.609375 136.28125 171.15625 C 136.152344 171.703125 136.054688 172.257812 135.988281 172.816406 C 135.921875 173.378906 135.890625 173.9375 135.890625 174.503906 C 135.890625 175.066406 135.921875 175.628906 135.988281 176.1875 C 136.054688 176.746094 136.152344 177.300781 136.28125 177.847656 C 136.410156 178.394531 136.574219 178.933594 136.765625 179.464844 C 136.960938 179.992188 137.183594 180.507812 137.4375 181.011719 C 137.6875 181.515625 137.972656 182.003906 138.28125 182.472656 C 138.589844 182.941406 138.925781 183.394531 139.289062 183.824219 C 139.652344 184.253906 140.039062 184.664062 140.449219 185.046875 C 140.859375 185.433594 141.292969 185.792969 141.746094 186.128906 C 142.195312 186.464844 142.667969 186.769531 143.15625 187.050781 C 143.644531 187.332031 144.148438 187.582031 144.664062 187.804688 C 145.183594 188.023438 145.710938 188.214844 146.25 188.375 C 146.789062 188.53125 147.335938 188.660156 147.890625 188.753906 C 148.445312 188.851562 149.003906 188.914062 149.566406 188.945312 C 150.128906 188.972656 150.691406 188.96875 151.25 188.933594 C 151.8125 188.898438 152.371094 188.832031 152.925781 188.730469 C 153.476562 188.628906 154.023438 188.496094 154.5625 188.332031 C 155.101562 188.164062 155.628906 187.96875 156.140625 187.742188 C 156.65625 187.515625 157.15625 187.261719 157.644531 186.976562 C 158.128906 186.691406 158.597656 186.378906 159.042969 186.039062 C 159.492188 185.699219 159.921875 185.335938 160.328125 184.945312 C 160.734375 184.554688 161.117188 184.144531 161.472656 183.707031 C 161.832031 183.273438 162.164062 182.820312 162.46875 182.347656 C 162.773438 181.875 163.050781 181.382812 163.300781 180.878906 C 163.546875 180.371094 163.765625 179.855469 163.953125 179.324219 L 188.460938 179.324219 C 186.386719 181.144531 184.191406 182.808594 181.878906 184.3125 C 179.566406 185.820312 177.15625 187.152344 174.652344 188.316406 C 172.148438 189.476562 169.574219 190.453125 166.929688 191.242188 C 164.289062 192.035156 161.601562 192.632812 158.871094 193.039062 C 156.140625 193.445312 153.398438 193.65625 150.636719 193.667969 C 147.878906 193.679688 145.132812 193.496094 142.398438 193.113281 C 139.664062 192.734375 136.972656 192.160156 134.324219 191.390625 C 131.671875 190.625 129.089844 189.671875 126.574219 188.535156 C 124.058594 187.394531 121.640625 186.085938 119.3125 184.597656 C 116.984375 183.113281 114.777344 181.46875 112.683594 179.667969 C 110.59375 177.867188 108.640625 175.925781 106.828125 173.84375 C 105.015625 171.757812 103.359375 169.558594 101.859375 167.238281 C 100.359375 164.917969 99.035156 162.503906 97.882812 159.996094 C 96.726562 157.484375 95.757812 154.90625 94.976562 152.257812 C 94.191406 149.609375 93.601562 146.917969 93.203125 144.183594 C 92.800781 141.449219 92.601562 138.699219 92.59375 135.9375 Z M 155.191406 174.503906 C 155.191406 174.820312 155.160156 175.132812 155.097656 175.441406 C 155.035156 175.753906 154.945312 176.054688 154.824219 176.347656 C 154.703125 176.640625 154.554688 176.917969 154.378906 177.179688 C 154.203125 177.445312 154.003906 177.6875 153.78125 177.910156 C 153.554688 178.132812 153.3125 178.335938 153.050781 178.511719 C 152.789062 178.6875 152.507812 178.835938 152.21875 178.957031 C 151.925781 179.078125 151.625 179.167969 151.3125 179.230469 C 151.003906 179.292969 150.691406 179.324219 150.375 179.324219 C 150.058594 179.324219 149.746094 179.292969 149.4375 179.230469 C 149.125 179.167969 148.824219 179.078125 148.53125 178.957031 C 148.242188 178.835938 147.960938 178.6875 147.699219 178.511719 C 147.4375 178.335938 147.195312 178.132812 146.96875 177.910156 C 146.746094 177.6875 146.546875 177.445312 146.371094 177.179688 C 146.195312 176.917969 146.046875 176.640625 145.925781 176.347656 C 145.804688 176.054688 145.714844 175.753906 145.652344 175.441406 C 145.589844 175.132812 145.558594 174.820312 145.558594 174.503906 C 145.558594 174.1875 145.589844 173.871094 145.652344 173.5625 C 145.714844 173.25 145.804688 172.949219 145.925781 172.65625 C 146.046875 172.363281 146.195312 172.085938 146.371094 171.824219 C 146.546875 171.5625 146.746094 171.316406 146.96875 171.09375 C 147.195312 170.871094 147.4375 170.671875 147.699219 170.496094 C 147.960938 170.320312 148.242188 170.167969 148.53125 170.046875 C 148.824219 169.925781 149.125 169.835938 149.4375 169.773438 C 149.746094 169.710938 150.058594 169.683594 150.375 169.683594 C 150.691406 169.683594 151.003906 169.710938 151.3125 169.773438 C 151.625 169.835938 151.925781 169.925781 152.21875 170.046875 C 152.507812 170.167969 152.789062 170.320312 153.050781 170.496094 C 153.3125 170.671875 153.554688 170.871094 153.78125 171.09375 C 154.003906 171.316406 154.203125 171.5625 154.378906 171.824219 C 154.554688 172.085938 154.703125 172.363281 154.824219 172.65625 C 154.945312 172.949219 155.035156 173.25 155.097656 173.5625 C 155.160156 173.871094 155.191406 174.1875 155.191406 174.503906 Z M 150.375 203.425781 C 158.679688 203.414062 166.707031 201.902344 174.449219 198.894531 L 174.449219 206.269531 L 150.375 230.371094 L 126.300781 206.269531 L 126.300781 198.894531 C 134.042969 201.902344 142.070312 203.414062 150.375 203.425781 Z M 119.945312 213.546875 L 142.621094 236.203125 L 127.890625 245.074219 L 109.640625 215.8125 Z M 39.628906 270.046875 C 39.628906 268.6875 39.6875 267.332031 39.800781 265.976562 C 39.917969 264.625 40.089844 263.277344 40.316406 261.9375 C 40.546875 260.597656 40.832031 259.273438 41.171875 257.957031 C 41.511719 256.640625 41.90625 255.34375 42.355469 254.0625 C 42.808594 252.78125 43.308594 251.519531 43.867188 250.28125 C 44.421875 249.042969 45.03125 247.828125 45.691406 246.640625 C 46.347656 245.453125 47.058594 244.296875 47.8125 243.167969 C 48.570312 242.042969 49.375 240.949219 50.222656 239.886719 C 51.070312 238.828125 51.964844 237.804688 52.898438 236.824219 C 53.835938 235.839844 54.808594 234.894531 55.824219 233.992188 C 56.839844 233.09375 57.890625 232.234375 58.980469 231.421875 C 60.066406 230.609375 61.1875 229.84375 62.335938 229.128906 C 63.488281 228.410156 64.671875 227.742188 65.878906 227.125 C 67.085938 226.503906 68.320312 225.941406 69.574219 225.425781 C 70.832031 224.914062 72.105469 224.453125 73.402344 224.046875 C 74.695312 223.640625 76.007812 223.292969 77.332031 222.996094 L 99.671875 218.175781 L 122.207031 254.328125 C 122.664062 255.007812 123.257812 255.535156 123.984375 255.914062 C 124.710938 256.289062 125.480469 256.46875 126.300781 256.449219 C 127.179688 256.449219 128 256.226562 128.753906 255.777344 L 145.558594 245.703125 L 145.558594 290.195312 L 78.148438 290.195312 L 78.148438 266.09375 L 68.519531 266.09375 L 68.519531 290.195312 L 39.628906 290.195312 Z M 261.121094 290.195312 L 232.230469 290.195312 L 232.230469 266.09375 L 222.601562 266.09375 L 222.601562 290.195312 L 155.191406 290.195312 L 155.191406 245.703125 L 171.996094 255.777344 C 172.75 256.226562 173.570312 256.449219 174.449219 256.449219 C 175.28125 256.453125 176.0625 256.253906 176.789062 255.847656 C 177.515625 255.445312 178.101562 254.890625 178.542969 254.183594 L 201.078125 217.886719 L 223.417969 222.707031 C 224.75 223.003906 226.066406 223.355469 227.363281 223.761719 C 228.664062 224.171875 229.945312 224.632812 231.207031 225.152344 C 232.46875 225.667969 233.707031 226.238281 234.921875 226.859375 C 236.132812 227.480469 237.316406 228.152344 238.472656 228.875 C 239.628906 229.597656 240.753906 230.371094 241.84375 231.1875 C 242.933594 232.003906 243.988281 232.867188 245.007812 233.777344 C 246.023438 234.683594 247 235.632812 247.9375 236.625 C 248.875 237.617188 249.769531 238.644531 250.617188 239.710938 C 251.46875 240.777344 252.269531 241.878906 253.027344 243.015625 C 253.785156 244.148438 254.492188 245.316406 255.148438 246.511719 C 255.804688 247.707031 256.410156 248.925781 256.964844 250.171875 C 257.519531 251.421875 258.019531 252.6875 258.464844 253.976562 C 258.910156 255.265625 259.304688 256.574219 259.636719 257.894531 C 259.972656 259.21875 260.253906 260.550781 260.476562 261.898438 C 260.699219 263.246094 260.863281 264.597656 260.96875 265.957031 C 261.078125 267.316406 261.128906 268.679688 261.121094 270.046875 Z M 261.121094 290.195312 " fill-opacity="1" fill-rule="nonzero"/></g></svg>