<svg xmlns="http://www.w3.org/2000/svg" xmlns:xlink="http://www.w3.org/1999/xlink" width="400" zoomAndPan="magnify" viewBox="0 0 300 299.999988" height="400" preserveAspectRatio="xMidYMid meet" version="1.0"><defs><clipPath id="4bf65bbd0e"><path d="M 9.371094 36.265625 L 290.621094 36.265625 L 290.621094 227 L 9.371094 227 Z M 9.371094 36.265625 " clip-rule="nonzero"/></clipPath><clipPath id="af9b7d5d1b"><path d="M 93 215 L 207 215 L 207 263.515625 L 93 263.515625 Z M 93 215 " clip-rule="nonzero"/></clipPath><clipPath id="3805103e50"><path d="M 76 252 L 224 252 L 224 263.515625 L 76 263.515625 Z M 76 252 " clip-rule="nonzero"/></clipPath><clipPath id="3644847ae6"><path d="M 9.371094 79 L 290.621094 79 L 290.621094 91 L 9.371094 91 Z M 9.371094 79 " clip-rule="nonzero"/></clipPath></defs><g clip-path="url(#4bf65bbd0e)"><path fill="#000000" d="M 285.148438 226.054688 L 14.84375 226.054688 C 14.488281 226.054688 14.136719 226.019531 13.789062 225.953125 C 13.441406 225.882812 13.101562 225.78125 12.773438 225.644531 C 12.445312 225.507812 12.136719 225.34375 11.839844 225.144531 C 11.542969 224.949219 11.269531 224.726562 11.019531 224.472656 C 10.769531 224.222656 10.546875 223.949219 10.347656 223.65625 C 10.152344 223.359375 9.984375 223.050781 9.847656 222.722656 C 9.710938 222.394531 9.609375 222.054688 9.539062 221.707031 C 9.472656 221.359375 9.4375 221.007812 9.4375 220.65625 L 9.4375 41.667969 C 9.4375 41.3125 9.472656 40.960938 9.539062 40.613281 C 9.609375 40.265625 9.710938 39.925781 9.847656 39.601562 C 9.984375 39.273438 10.152344 38.960938 10.347656 38.667969 C 10.546875 38.371094 10.769531 38.097656 11.019531 37.847656 C 11.273438 37.597656 11.542969 37.371094 11.839844 37.175781 C 12.136719 36.980469 12.445312 36.8125 12.773438 36.675781 C 13.101562 36.542969 13.441406 36.4375 13.789062 36.371094 C 14.136719 36.300781 14.488281 36.265625 14.84375 36.265625 L 285.148438 36.265625 C 285.503906 36.265625 285.855469 36.300781 286.203125 36.371094 C 286.550781 36.4375 286.886719 36.542969 287.214844 36.675781 C 287.542969 36.8125 287.855469 36.980469 288.152344 37.175781 C 288.445312 37.371094 288.71875 37.597656 288.96875 37.847656 C 289.222656 38.097656 289.445312 38.371094 289.640625 38.667969 C 289.839844 38.960938 290.007812 39.273438 290.140625 39.601562 C 290.277344 39.925781 290.378906 40.265625 290.449219 40.613281 C 290.519531 40.960938 290.554688 41.3125 290.554688 41.667969 L 290.554688 220.65625 C 290.554688 221.007812 290.519531 221.359375 290.449219 221.707031 C 290.378906 222.054688 290.277344 222.394531 290.140625 222.722656 C 290.007812 223.050781 289.839844 223.359375 289.640625 223.65625 C 289.445312 223.949219 289.222656 224.222656 288.96875 224.472656 C 288.71875 224.726562 288.445312 224.949219 288.152344 225.144531 C 287.855469 225.34375 287.542969 225.507812 287.214844 225.644531 C 286.886719 225.78125 286.550781 225.882812 286.203125 225.953125 C 285.855469 226.019531 285.503906 226.054688 285.148438 226.054688 Z M 20.25 215.253906 L 279.742188 215.253906 L 279.742188 47.066406 L 20.25 47.066406 Z M 20.25 215.253906 " fill-opacity="1" fill-rule="nonzero"/></g><g clip-path="url(#af9b7d5d1b)"><path fill="#000000" d="M 200.886719 263.515625 L 99.105469 263.515625 C 98.882812 263.515625 98.660156 263.5 98.441406 263.476562 C 98.21875 263.449219 98.003906 263.40625 97.789062 263.351562 C 97.570312 263.296875 97.359375 263.230469 97.152344 263.152344 C 96.945312 263.070312 96.746094 262.980469 96.550781 262.875 C 96.355469 262.769531 96.167969 262.652344 95.984375 262.527344 C 95.804688 262.398438 95.632812 262.257812 95.46875 262.109375 C 95.304688 261.960938 95.148438 261.800781 95.003906 261.632812 C 94.859375 261.464844 94.726562 261.289062 94.601562 261.105469 C 94.480469 260.917969 94.367188 260.726562 94.269531 260.53125 C 94.171875 260.332031 94.082031 260.128906 94.007812 259.917969 C 93.9375 259.710938 93.875 259.496094 93.828125 259.28125 C 93.777344 259.066406 93.746094 258.847656 93.722656 258.625 C 93.703125 258.40625 93.695312 258.183594 93.703125 257.960938 C 93.707031 257.738281 93.726562 257.519531 93.761719 257.300781 C 93.792969 257.082031 93.839844 256.863281 93.902344 256.652344 C 93.960938 256.4375 94.035156 256.230469 94.121094 256.023438 L 109.859375 218.554688 C 110.066406 218.066406 110.339844 217.613281 110.679688 217.203125 C 111.019531 216.796875 111.414062 216.441406 111.859375 216.148438 C 112.300781 215.855469 112.78125 215.632812 113.289062 215.480469 C 113.800781 215.328125 114.324219 215.253906 114.855469 215.253906 L 185.132812 215.253906 C 185.667969 215.253906 186.1875 215.332031 186.699219 215.484375 C 187.207031 215.636719 187.683594 215.863281 188.128906 216.15625 C 188.574219 216.453125 188.964844 216.804688 189.304688 217.214844 C 189.644531 217.625 189.914062 218.074219 190.121094 218.566406 L 205.859375 256.035156 C 205.945312 256.238281 206.019531 256.449219 206.078125 256.660156 C 206.140625 256.875 206.1875 257.089844 206.21875 257.3125 C 206.253906 257.53125 206.273438 257.75 206.277344 257.972656 C 206.285156 258.195312 206.277344 258.414062 206.257812 258.636719 C 206.234375 258.855469 206.203125 259.074219 206.152344 259.292969 C 206.105469 259.507812 206.042969 259.71875 205.96875 259.929688 C 205.894531 260.136719 205.808594 260.34375 205.710938 260.539062 C 205.609375 260.738281 205.5 260.929688 205.378906 261.113281 C 205.253906 261.300781 205.121094 261.476562 204.976562 261.644531 C 204.832031 261.8125 204.675781 261.96875 204.511719 262.121094 C 204.347656 262.269531 204.175781 262.40625 203.996094 262.535156 C 203.8125 262.664062 203.625 262.78125 203.429688 262.882812 C 203.234375 262.988281 203.03125 263.082031 202.824219 263.160156 C 202.621094 263.242188 202.40625 263.308594 202.191406 263.363281 C 201.976562 263.417969 201.761719 263.457031 201.539062 263.484375 C 201.320312 263.511719 201.097656 263.527344 200.875 263.527344 Z M 107.238281 252.714844 L 192.753906 252.714844 L 181.554688 226.046875 L 118.4375 226.046875 Z M 107.238281 252.714844 " fill-opacity="1" fill-rule="nonzero"/></g><g clip-path="url(#3805103e50)"><path fill="#000000" d="M 217.9375 263.515625 L 82.054688 263.515625 C 81.699219 263.515625 81.347656 263.480469 81 263.410156 C 80.652344 263.34375 80.3125 263.238281 79.984375 263.105469 C 79.65625 262.96875 79.347656 262.800781 79.050781 262.605469 C 78.753906 262.410156 78.484375 262.183594 78.230469 261.933594 C 77.980469 261.683594 77.757812 261.410156 77.558594 261.113281 C 77.363281 260.820312 77.195312 260.507812 77.058594 260.179688 C 76.925781 259.855469 76.820312 259.515625 76.753906 259.167969 C 76.683594 258.820312 76.648438 258.46875 76.648438 258.113281 C 76.648438 257.761719 76.683594 257.410156 76.753906 257.0625 C 76.820312 256.714844 76.925781 256.375 77.058594 256.046875 C 77.195312 255.71875 77.363281 255.410156 77.558594 255.113281 C 77.757812 254.820312 77.980469 254.546875 78.230469 254.296875 C 78.484375 254.042969 78.753906 253.820312 79.050781 253.625 C 79.347656 253.425781 79.65625 253.261719 79.984375 253.125 C 80.3125 252.988281 80.652344 252.886719 81 252.816406 C 81.347656 252.75 81.699219 252.714844 82.054688 252.714844 L 217.9375 252.714844 C 218.292969 252.714844 218.644531 252.75 218.992188 252.816406 C 219.339844 252.886719 219.675781 252.988281 220.003906 253.125 C 220.332031 253.261719 220.644531 253.425781 220.941406 253.625 C 221.234375 253.820312 221.507812 254.042969 221.757812 254.296875 C 222.011719 254.546875 222.234375 254.820312 222.429688 255.113281 C 222.628906 255.410156 222.792969 255.71875 222.929688 256.046875 C 223.066406 256.375 223.167969 256.714844 223.238281 257.0625 C 223.308594 257.410156 223.34375 257.761719 223.34375 258.113281 C 223.34375 258.46875 223.308594 258.820312 223.238281 259.167969 C 223.167969 259.515625 223.066406 259.855469 222.929688 260.179688 C 222.792969 260.507812 222.628906 260.820312 222.429688 261.113281 C 222.234375 261.410156 222.011719 261.683594 221.757812 261.933594 C 221.507812 262.183594 221.234375 262.410156 220.941406 262.605469 C 220.644531 262.800781 220.332031 262.96875 220.003906 263.105469 C 219.675781 263.238281 219.339844 263.34375 218.992188 263.410156 C 218.644531 263.480469 218.292969 263.515625 217.9375 263.515625 Z M 217.9375 263.515625 " fill-opacity="1" fill-rule="nonzero"/></g><g clip-path="url(#3644847ae6)"><path fill="#000000" d="M 285.148438 90.007812 L 14.84375 90.007812 C 14.488281 90.007812 14.136719 89.972656 13.789062 89.902344 C 13.441406 89.832031 13.101562 89.730469 12.773438 89.59375 C 12.445312 89.460938 12.136719 89.292969 11.839844 89.097656 C 11.542969 88.898438 11.269531 88.675781 11.019531 88.425781 C 10.769531 88.171875 10.546875 87.902344 10.347656 87.605469 C 10.152344 87.3125 9.984375 87 9.847656 86.671875 C 9.710938 86.34375 9.609375 86.007812 9.539062 85.660156 C 9.472656 85.3125 9.4375 84.960938 9.4375 84.605469 C 9.4375 84.25 9.472656 83.898438 9.539062 83.550781 C 9.609375 83.203125 9.710938 82.867188 9.847656 82.539062 C 9.984375 82.210938 10.152344 81.898438 10.347656 81.605469 C 10.546875 81.308594 10.769531 81.035156 11.019531 80.785156 C 11.269531 80.535156 11.542969 80.3125 11.839844 80.113281 C 12.136719 79.917969 12.445312 79.75 12.773438 79.617188 C 13.101562 79.480469 13.441406 79.378906 13.789062 79.308594 C 14.136719 79.238281 14.488281 79.203125 14.84375 79.203125 L 285.148438 79.203125 C 285.503906 79.203125 285.855469 79.238281 286.203125 79.308594 C 286.550781 79.378906 286.886719 79.480469 287.214844 79.617188 C 287.542969 79.75 287.855469 79.917969 288.152344 80.113281 C 288.445312 80.3125 288.71875 80.535156 288.96875 80.785156 C 289.222656 81.035156 289.445312 81.308594 289.640625 81.605469 C 289.839844 81.898438 290.007812 82.210938 290.140625 82.539062 C 290.277344 82.867188 290.378906 83.203125 290.449219 83.550781 C 290.519531 83.898438 290.554688 84.25 290.554688 84.605469 C 290.554688 84.960938 290.519531 85.3125 290.449219 85.660156 C 290.378906 86.007812 290.277344 86.34375 290.140625 86.671875 C 290.007812 87 289.839844 87.3125 289.640625 87.605469 C 289.445312 87.902344 289.222656 88.171875 288.96875 88.425781 C 288.71875 88.675781 288.445312 88.898438 288.152344 89.097656 C 287.855469 89.292969 287.542969 89.460938 287.214844 89.59375 C 286.886719 89.730469 286.550781 89.832031 286.203125 89.902344 C 285.855469 89.972656 285.503906 90.007812 285.148438 90.007812 Z M 285.148438 90.007812 " fill-opacity="1" fill-rule="nonzero"/></g><path fill="#000000" d="M 214.53125 68.570312 L 205.070312 68.570312 C 204.714844 68.570312 204.363281 68.535156 204.015625 68.46875 C 203.667969 68.398438 203.328125 68.296875 203 68.160156 C 202.671875 68.023438 202.359375 67.859375 202.066406 67.660156 C 201.769531 67.464844 201.496094 67.238281 201.246094 66.988281 C 200.996094 66.738281 200.773438 66.464844 200.574219 66.171875 C 200.378906 65.875 200.210938 65.5625 200.074219 65.238281 C 199.9375 64.910156 199.835938 64.570312 199.765625 64.222656 C 199.699219 63.875 199.664062 63.523438 199.664062 63.167969 C 199.664062 62.816406 199.699219 62.464844 199.765625 62.117188 C 199.835938 61.769531 199.9375 61.429688 200.074219 61.101562 C 200.210938 60.773438 200.378906 60.464844 200.574219 60.167969 C 200.773438 59.875 200.996094 59.601562 201.246094 59.351562 C 201.496094 59.101562 201.769531 58.875 202.066406 58.679688 C 202.359375 58.480469 202.671875 58.316406 203 58.179688 C 203.328125 58.042969 203.667969 57.941406 204.015625 57.871094 C 204.363281 57.804688 204.714844 57.769531 205.070312 57.769531 L 214.53125 57.769531 C 214.886719 57.769531 215.238281 57.804688 215.585938 57.871094 C 215.933594 57.941406 216.269531 58.042969 216.597656 58.179688 C 216.925781 58.316406 217.238281 58.480469 217.535156 58.679688 C 217.828125 58.875 218.101562 59.101562 218.351562 59.351562 C 218.605469 59.601562 218.828125 59.875 219.023438 60.167969 C 219.222656 60.464844 219.390625 60.773438 219.523438 61.101562 C 219.660156 61.429688 219.761719 61.769531 219.832031 62.117188 C 219.902344 62.464844 219.9375 62.816406 219.9375 63.167969 C 219.9375 63.523438 219.902344 63.875 219.832031 64.222656 C 219.761719 64.570312 219.660156 64.910156 219.523438 65.238281 C 219.390625 65.5625 219.222656 65.875 219.023438 66.171875 C 218.828125 66.464844 218.605469 66.738281 218.351562 66.988281 C 218.101562 67.238281 217.828125 67.464844 217.535156 67.660156 C 217.238281 67.859375 216.925781 68.023438 216.597656 68.160156 C 216.269531 68.296875 215.933594 68.398438 215.585938 68.46875 C 215.238281 68.535156 214.886719 68.570312 214.53125 68.570312 Z M 214.53125 68.570312 " fill-opacity="1" fill-rule="nonzero"/><path fill="#000000" d="M 240.378906 68.570312 L 230.917969 68.570312 C 230.5625 68.570312 230.210938 68.535156 229.863281 68.46875 C 229.515625 68.398438 229.175781 68.296875 228.847656 68.160156 C 228.519531 68.023438 228.210938 67.859375 227.914062 67.660156 C 227.617188 67.464844 227.347656 67.238281 227.09375 66.988281 C 226.84375 66.738281 226.621094 66.464844 226.421875 66.171875 C 226.226562 65.875 226.058594 65.5625 225.921875 65.238281 C 225.785156 64.910156 225.683594 64.570312 225.617188 64.222656 C 225.546875 63.875 225.511719 63.523438 225.511719 63.167969 C 225.511719 62.816406 225.546875 62.464844 225.617188 62.117188 C 225.683594 61.769531 225.785156 61.429688 225.921875 61.101562 C 226.058594 60.773438 226.226562 60.464844 226.421875 60.167969 C 226.621094 59.875 226.84375 59.601562 227.09375 59.351562 C 227.347656 59.101562 227.617188 58.875 227.914062 58.679688 C 228.210938 58.480469 228.519531 58.316406 228.847656 58.179688 C 229.175781 58.042969 229.515625 57.941406 229.863281 57.871094 C 230.210938 57.804688 230.5625 57.769531 230.917969 57.769531 L 240.378906 57.769531 C 240.734375 57.769531 241.085938 57.804688 241.433594 57.871094 C 241.78125 57.941406 242.117188 58.042969 242.445312 58.179688 C 242.773438 58.316406 243.085938 58.480469 243.382812 58.679688 C 243.675781 58.875 243.949219 59.101562 244.199219 59.351562 C 244.453125 59.601562 244.675781 59.875 244.875 60.167969 C 245.070312 60.464844 245.238281 60.773438 245.371094 61.101562 C 245.507812 61.429688 245.609375 61.769531 245.679688 62.117188 C 245.75 62.464844 245.785156 62.816406 245.785156 63.167969 C 245.785156 63.523438 245.75 63.875 245.679688 64.222656 C 245.609375 64.570312 245.507812 64.910156 245.371094 65.238281 C 245.238281 65.5625 245.070312 65.875 244.875 66.171875 C 244.675781 66.464844 244.453125 66.738281 244.199219 66.988281 C 243.949219 67.238281 243.675781 67.464844 243.382812 67.660156 C 243.085938 67.859375 242.773438 68.023438 242.445312 68.160156 C 242.117188 68.296875 241.78125 68.398438 241.433594 68.46875 C 241.085938 68.535156 240.734375 68.570312 240.378906 68.570312 Z M 240.378906 68.570312 " fill-opacity="1" fill-rule="nonzero"/><path fill="#000000" d="M 266.226562 68.570312 L 256.765625 68.570312 C 256.410156 68.570312 256.058594 68.535156 255.710938 68.46875 C 255.363281 68.398438 255.023438 68.296875 254.695312 68.160156 C 254.367188 68.023438 254.058594 67.859375 253.761719 67.660156 C 253.464844 67.464844 253.195312 67.238281 252.941406 66.988281 C 252.691406 66.738281 252.46875 66.464844 252.269531 66.171875 C 252.074219 65.875 251.90625 65.5625 251.769531 65.238281 C 251.636719 64.910156 251.53125 64.570312 251.464844 64.222656 C 251.394531 63.875 251.359375 63.523438 251.359375 63.167969 C 251.359375 62.816406 251.394531 62.464844 251.464844 62.117188 C 251.53125 61.769531 251.636719 61.429688 251.769531 61.101562 C 251.90625 60.773438 252.074219 60.464844 252.269531 60.167969 C 252.46875 59.875 252.691406 59.601562 252.941406 59.351562 C 253.195312 59.101562 253.464844 58.875 253.761719 58.679688 C 254.058594 58.480469 254.367188 58.316406 254.695312 58.179688 C 255.023438 58.042969 255.363281 57.941406 255.710938 57.871094 C 256.058594 57.804688 256.410156 57.769531 256.765625 57.769531 L 266.226562 57.769531 C 266.582031 57.769531 266.933594 57.804688 267.28125 57.871094 C 267.628906 57.941406 267.96875 58.042969 268.292969 58.179688 C 268.621094 58.316406 268.933594 58.480469 269.230469 58.679688 C 269.523438 58.875 269.796875 59.101562 270.046875 59.351562 C 270.300781 59.601562 270.523438 59.875 270.722656 60.167969 C 270.917969 60.464844 271.085938 60.773438 271.21875 61.101562 C 271.355469 61.429688 271.457031 61.769531 271.527344 62.117188 C 271.597656 62.464844 271.632812 62.816406 271.632812 63.167969 C 271.632812 63.523438 271.597656 63.875 271.527344 64.222656 C 271.457031 64.570312 271.355469 64.910156 271.21875 65.238281 C 271.085938 65.5625 270.917969 65.875 270.722656 66.171875 C 270.523438 66.464844 270.300781 66.738281 270.046875 66.988281 C 269.796875 67.238281 269.523438 67.464844 269.230469 67.660156 C 268.933594 67.859375 268.621094 68.023438 268.292969 68.160156 C 267.96875 68.296875 267.628906 68.398438 267.28125 68.46875 C 266.933594 68.535156 266.582031 68.570312 266.226562 68.570312 Z M 266.226562 68.570312 " fill-opacity="1" fill-rule="nonzero"/><path fill="#000000" d="M 172.0625 203.714844 C 171.34375 203.714844 170.65625 203.578125 169.992188 203.304688 C 169.332031 203.03125 168.746094 202.640625 168.242188 202.132812 L 144.804688 178.71875 L 132.742188 190.773438 C 132.578125 190.9375 132.402344 191.09375 132.21875 191.234375 C 132.035156 191.375 131.839844 191.507812 131.636719 191.625 C 131.4375 191.742188 131.226562 191.84375 131.011719 191.933594 C 130.796875 192.023438 130.578125 192.101562 130.351562 192.164062 C 130.128906 192.222656 129.898438 192.273438 129.667969 192.304688 C 129.4375 192.335938 129.207031 192.351562 128.972656 192.355469 C 128.738281 192.359375 128.507812 192.34375 128.273438 192.316406 C 128.042969 192.289062 127.8125 192.246094 127.585938 192.1875 C 127.359375 192.132812 127.140625 192.058594 126.921875 191.972656 C 126.707031 191.886719 126.496094 191.789062 126.292969 191.675781 C 126.085938 191.5625 125.890625 191.433594 125.703125 191.296875 C 125.515625 191.15625 125.339844 191.007812 125.171875 190.847656 C 125.003906 190.683594 124.84375 190.511719 124.699219 190.332031 C 124.554688 190.148438 124.421875 189.957031 124.300781 189.757812 C 124.179688 189.558594 124.070312 189.351562 123.976562 189.140625 C 123.882812 188.925781 123.800781 188.707031 123.734375 188.484375 L 101.515625 113.332031 C 101.378906 112.867188 101.304688 112.390625 101.296875 111.90625 C 101.285156 111.417969 101.339844 110.941406 101.460938 110.472656 C 101.582031 110 101.761719 109.554688 102 109.132812 C 102.242188 108.710938 102.535156 108.328125 102.878906 107.984375 C 103.21875 107.640625 103.605469 107.347656 104.027344 107.109375 C 104.449219 106.867188 104.894531 106.6875 105.367188 106.566406 C 105.835938 106.449219 106.316406 106.394531 106.800781 106.402344 C 107.289062 106.410156 107.761719 106.484375 108.230469 106.621094 L 183.445312 128.820312 C 183.667969 128.886719 183.886719 128.964844 184.101562 129.058594 C 184.316406 129.15625 184.519531 129.261719 184.71875 129.382812 C 184.921875 129.503906 185.109375 129.636719 185.292969 129.785156 C 185.476562 129.929688 185.648438 130.085938 185.808594 130.253906 C 185.972656 130.421875 186.121094 130.601562 186.261719 130.785156 C 186.398438 130.972656 186.523438 131.171875 186.636719 131.375 C 186.75 131.578125 186.851562 131.789062 186.9375 132.003906 C 187.023438 132.222656 187.097656 132.441406 187.152344 132.667969 C 187.210938 132.894531 187.253906 133.125 187.28125 133.355469 C 187.308594 133.585938 187.320312 133.816406 187.320312 134.050781 C 187.316406 134.285156 187.300781 134.515625 187.269531 134.746094 C 187.234375 134.976562 187.1875 135.207031 187.125 135.429688 C 187.066406 135.65625 186.988281 135.875 186.898438 136.089844 C 186.808594 136.304688 186.703125 136.515625 186.585938 136.714844 C 186.46875 136.917969 186.339844 137.109375 186.199219 137.296875 C 186.054688 137.480469 185.902344 137.65625 185.734375 137.820312 L 173.675781 149.890625 L 197.113281 173.304688 C 197.363281 173.554688 197.585938 173.828125 197.785156 174.121094 C 197.980469 174.417969 198.148438 174.730469 198.285156 175.058594 C 198.421875 175.382812 198.523438 175.722656 198.59375 176.070312 C 198.660156 176.417969 198.695312 176.769531 198.695312 177.125 C 198.695312 177.480469 198.660156 177.828125 198.59375 178.175781 C 198.523438 178.527344 198.421875 178.863281 198.285156 179.191406 C 198.148438 179.519531 197.980469 179.828125 197.785156 180.125 C 197.585938 180.417969 197.363281 180.691406 197.113281 180.945312 L 175.886719 202.148438 C 175.378906 202.652344 174.792969 203.039062 174.128906 203.3125 C 173.46875 203.582031 172.777344 203.71875 172.0625 203.714844 Z M 144.804688 165.679688 C 145.523438 165.675781 146.21875 165.8125 146.882812 166.085938 C 147.546875 166.363281 148.136719 166.753906 148.644531 167.261719 L 172.074219 190.675781 L 185.660156 177.105469 L 162.222656 153.691406 C 161.972656 153.441406 161.75 153.167969 161.550781 152.875 C 161.355469 152.578125 161.1875 152.265625 161.050781 151.941406 C 160.917969 151.613281 160.8125 151.273438 160.746094 150.925781 C 160.675781 150.578125 160.640625 150.226562 160.640625 149.875 C 160.640625 149.519531 160.675781 149.167969 160.746094 148.820312 C 160.8125 148.472656 160.917969 148.136719 161.050781 147.808594 C 161.1875 147.480469 161.355469 147.167969 161.550781 146.875 C 161.75 146.578125 161.972656 146.304688 162.222656 146.054688 L 171.683594 136.605469 L 114.71875 119.792969 L 131.542969 176.707031 L 141.003906 167.253906 C 141.507812 166.753906 142.089844 166.363281 142.75 166.089844 C 143.40625 165.816406 144.09375 165.679688 144.804688 165.679688 Z M 144.804688 165.679688 " fill-opacity="1" fill-rule="nonzero"/></svg>