<svg xmlns="http://www.w3.org/2000/svg" xmlns:xlink="http://www.w3.org/1999/xlink" width="400" zoomAndPan="magnify" viewBox="0 0 300 299.999988" height="400" preserveAspectRatio="xMidYMid meet" version="1.0"><path fill="#000000" d="M 232.09375 193.410156 C 232.09375 129.476562 113.976562 133.648438 113.976562 95.050781 C 113.976562 76.367188 131.890625 67.242188 152.667969 67.242188 C 187.609375 67.242188 193.828125 89.640625 209.652344 89.640625 C 220.859375 89.640625 226.253906 82.601562 226.253906 74.707031 C 226.253906 56.367188 198.386719 42.484375 171.664062 37.675781 L 171.664062 19.976562 C 171.664062 8.933594 162.714844 -0.0234375 151.640625 -0.0234375 C 140.558594 -0.0234375 131.597656 8.933594 131.597656 19.976562 L 131.597656 38.300781 C 102.460938 44.917969 77.402344 65.082031 77.402344 97.957031 C 77.402344 159.367188 195.5 156.882812 195.5 200.015625 C 195.5 214.957031 179.289062 229.898438 152.667969 229.898438 C 112.742188 229.898438 99.4375 202.933594 83.222656 202.933594 C 75.320312 202.933594 68.257812 209.566406 68.257812 219.566406 C 68.257812 235.449219 94.9375 254.566406 131.625 259.910156 L 131.597656 260.035156 L 131.597656 280.007812 C 131.597656 291.058594 140.574219 300.015625 151.648438 300.015625 C 162.714844 300.015625 171.683594 291.058594 171.683594 280.007812 L 171.683594 260.035156 C 171.683594 259.800781 171.566406 259.617188 171.546875 259.410156 C 204.558594 253.257812 232.09375 231.785156 232.09375 193.410156 Z M 232.09375 193.410156 " fill-opacity="1" fill-rule="nonzero"/></svg>