<svg xmlns="http://www.w3.org/2000/svg" xmlns:xlink="http://www.w3.org/1999/xlink" width="500" zoomAndPan="magnify" viewBox="0 0 375 374.999991" height="500" preserveAspectRatio="xMidYMid meet" version="1.0"><rect x="-37.5" width="450" fill="#ffffff" y="-37.499999" height="449.999989" fill-opacity="1"/><rect x="-37.5" width="450" fill="#ffffff" y="-37.499999" height="449.999989" fill-opacity="1"/><rect x="-37.5" width="450" fill="#ffffff" y="-37.499999" height="449.999989" fill-opacity="1"/><path fill="#7ed957" d="M 187.5 34.089844 C 102.773438 34.089844 34.089844 102.773438 34.089844 187.5 C 34.089844 272.226562 102.773438 340.910156 187.5 340.910156 C 272.226562 340.910156 340.910156 272.226562 340.910156 187.5 C 340.910156 102.773438 272.226562 34.089844 187.5 34.089844 Z M 0 187.5 C 0 83.945312 83.945312 0 187.5 0 C 291.054688 0 375 83.945312 375 187.5 C 375 291.054688 291.054688 375 187.5 375 C 83.945312 375 0 291.054688 0 187.5 Z M 0 187.5 " fill-opacity="1" fill-rule="evenodd"/><path fill="#7ed957" d="M 126.144531 144.886719 C 126.144531 116.644531 149.039062 93.75 177.28125 93.75 L 230.121094 93.75 L 230.121094 127.839844 L 177.28125 127.839844 C 167.867188 127.839844 160.234375 135.472656 160.234375 144.886719 L 160.234375 153.410156 C 160.234375 162.824219 167.867188 170.453125 177.28125 170.453125 L 197.734375 170.453125 C 225.976562 170.453125 248.871094 193.347656 248.871094 221.589844 L 248.871094 230.113281 C 248.871094 258.355469 225.976562 281.25 197.734375 281.25 L 144.894531 281.25 L 144.894531 247.160156 L 197.734375 247.160156 C 207.148438 247.160156 214.78125 239.527344 214.78125 230.113281 L 214.78125 221.589844 C 214.78125 212.175781 207.148438 204.546875 197.734375 204.546875 L 177.28125 204.546875 C 149.039062 204.546875 126.144531 181.652344 126.144531 153.410156 Z M 126.144531 144.886719 " fill-opacity="1" fill-rule="evenodd"/><path fill="#7ed957" d="M 170.453125 73.296875 L 204.546875 73.296875 L 204.546875 110.796875 L 170.453125 110.796875 Z M 170.453125 73.296875 " fill-opacity="1" fill-rule="evenodd"/><path fill="#7ed957" d="M 170.453125 264.203125 L 204.546875 264.203125 L 204.546875 301.703125 L 170.453125 301.703125 Z M 170.453125 264.203125 " fill-opacity="1" fill-rule="evenodd"/></svg>