<svg xmlns="http://www.w3.org/2000/svg" xmlns:xlink="http://www.w3.org/1999/xlink" width="500" zoomAndPan="magnify" viewBox="0 0 375 374.999991" height="500" preserveAspectRatio="xMidYMid meet" version="1.0"><defs><clipPath id="5b7c2469d2"><path d="M 5.625 0 L 369.375 0 L 369.375 375 L 5.625 375 Z M 5.625 0 " clip-rule="nonzero"/></clipPath></defs><path fill="#69472a" d="M 208.152344 120.210938 C 202.128906 127.273438 195.632812 130.488281 192.152344 130.488281 C 181.65625 130.488281 166.089844 115.332031 166.089844 94.398438 C 166.089844 68.945312 169.710938 58.308594 192.152344 58.308594 C 218.214844 58.308594 218.214844 71.125 218.214844 94.398438 C 218.214844 106.585938 211.910156 115.800781 208.152344 120.210938 Z M 192.152344 48.3125 C 156.09375 48.3125 156.09375 76.046875 156.09375 94.398438 C 156.09375 120.355469 175.476562 140.484375 192.152344 140.484375 C 206.390625 140.484375 228.207031 119.839844 228.207031 94.398438 C 228.207031 71.738281 228.207031 48.3125 192.152344 48.3125 " fill-opacity="1" fill-rule="nonzero"/><path fill="#69472a" d="M 160.3125 236.886719 C 160.550781 236.921875 160.789062 236.9375 161.019531 236.9375 C 163.46875 236.9375 165.609375 235.136719 165.964844 232.640625 C 168.46875 214.953125 166.355469 201.0625 166.265625 200.480469 C 165.835938 197.753906 163.285156 195.890625 160.558594 196.316406 C 157.835938 196.738281 155.964844 199.292969 156.386719 202.019531 C 156.410156 202.148438 158.351562 215.105469 156.066406 231.238281 C 155.679688 233.96875 157.578125 236.5 160.3125 236.886719 " fill-opacity="1" fill-rule="nonzero"/><g clip-path="url(#5b7c2469d2)"><path fill="#69472a" d="M 312.152344 314.359375 C 348.601562 280.03125 369.386719 232.144531 369.386719 181.921875 C 369.386719 81.632812 287.796875 0.0390625 187.507812 0.0390625 C 87.21875 0.0390625 5.625 81.632812 5.625 181.921875 C 5.625 232.742188 26.820312 281 63.988281 315.402344 C 54.855469 321.433594 48.25 328.296875 46.613281 337.097656 C 43.578125 353.394531 50.804688 362.445312 57.40625 367.171875 C 64.742188 372.425781 75.1875 374.960938 87.382812 374.960938 C 107.769531 374.957031 133.042969 367.871094 156.820312 354.5 C 163.609375 350.679688 170.835938 345.625 178.484375 340.273438 C 204.53125 322.050781 223.789062 310.101562 234.414062 322.40625 C 236.21875 324.496094 239.375 324.726562 241.460938 322.921875 C 243.550781 321.117188 243.78125 317.964844 241.980469 315.875 C 234.097656 306.742188 222.769531 305.007812 208.316406 310.714844 C 196.804688 315.261719 184.582031 323.8125 172.753906 332.082031 C 165.3125 337.289062 158.28125 342.207031 151.921875 345.785156 C 112.917969 367.71875 77.113281 368.984375 63.226562 359.042969 C 57.058594 354.628906 54.773438 347.863281 56.4375 338.925781 C 58.597656 327.316406 77.273438 318.648438 97.042969 309.472656 C 116.679688 300.359375 136.984375 290.933594 148.613281 276.015625 C 150.648438 273.402344 152.546875 270.601562 154.261719 267.679688 C 155.660156 265.296875 154.859375 262.234375 152.476562 260.839844 C 150.097656 259.441406 147.035156 260.242188 145.636719 262.621094 C 144.148438 265.164062 142.496094 267.601562 140.730469 269.867188 C 130.585938 282.886719 111.394531 291.792969 92.835938 300.40625 C 85.933594 303.613281 79.144531 306.761719 72.980469 310.082031 C 36.488281 277.453125 15.617188 230.945312 15.617188 181.921875 C 15.617188 87.140625 92.726562 10.03125 187.507812 10.03125 C 282.285156 10.03125 359.394531 87.140625 359.394531 181.921875 C 359.394531 230.285156 339 276.359375 303.324219 308.914062 C 297.917969 305.875 292.035156 302.96875 286.050781 300.019531 C 269.019531 291.625 251.410156 282.9375 242.113281 270.269531 C 240.398438 267.9375 238.804688 265.410156 237.371094 262.769531 C 236.054688 260.339844 233.019531 259.445312 230.59375 260.757812 C 228.167969 262.074219 227.269531 265.109375 228.582031 267.535156 C 230.234375 270.574219 232.074219 273.484375 234.054688 276.183594 C 244.796875 290.820312 263.523438 300.054688 281.632812 308.984375 C 299.753906 317.921875 316.875 326.363281 318.859375 337.6875 C 319.878906 343.519531 317.667969 348.222656 312.085938 352.0625 C 301.453125 359.382812 280.300781 362.527344 255.5 360.46875 C 230.125 358.363281 204.734375 350.992188 187.585938 340.753906 C 185.214844 339.335938 182.144531 340.109375 180.734375 342.476562 C 179.316406 344.847656 180.089844 347.917969 182.460938 349.332031 C 206 363.390625 240.339844 371.058594 269.789062 371.058594 C 289.570312 371.058594 307.148438 367.597656 317.753906 360.296875 C 326.636719 354.179688 330.421875 345.765625 328.703125 335.960938 C 327.164062 327.171875 320.84375 320.355469 312.152344 314.359375 " fill-opacity="1" fill-rule="nonzero"/></g><path fill="#69472a" d="M 223.492188 198.21875 C 220.753906 197.816406 218.222656 199.707031 217.820312 202.433594 C 217.742188 202.976562 215.890625 215.886719 217.9375 232.550781 C 218.246094 235.082031 220.398438 236.9375 222.890625 236.9375 C 223.09375 236.9375 223.296875 236.925781 223.503906 236.902344 C 226.242188 236.566406 228.191406 234.070312 227.855469 231.332031 C 225.984375 216.082031 227.691406 204.007812 227.707031 203.886719 C 228.105469 201.160156 226.21875 198.621094 223.492188 198.21875 " fill-opacity="1" fill-rule="nonzero"/><path fill="#69472a" d="M 125.234375 157.335938 C 113.132812 170.527344 110.625 195.09375 108.613281 214.835938 C 108.40625 216.882812 108.203125 218.882812 107.992188 220.816406 C 107.972656 220.996094 106.222656 238.980469 112.285156 246.039062 C 116.710938 251.191406 123.882812 250.945312 129.640625 250.746094 C 131.625 250.675781 133.503906 250.609375 135.121094 250.742188 C 142.191406 251.304688 147.929688 251.917969 152.988281 252.457031 C 159.59375 253.15625 164.816406 253.714844 169.335938 253.714844 C 175.597656 253.710938 180.511719 252.644531 185.875 249.429688 C 189.019531 247.539062 191.171875 243.132812 192.824219 234.503906 C 194.472656 243.132812 196.625 247.539062 199.769531 249.429688 C 205.132812 252.648438 210.046875 253.714844 216.308594 253.714844 C 220.828125 253.710938 226.054688 253.15625 232.65625 252.457031 C 237.714844 251.917969 243.453125 251.308594 250.527344 250.742188 C 252.140625 250.609375 254.019531 250.675781 256.007812 250.746094 C 261.757812 250.945312 268.933594 251.191406 273.359375 246.039062 C 279.425781 238.984375 277.667969 220.996094 277.652344 220.816406 C 277.441406 218.886719 277.238281 216.890625 277.03125 214.847656 C 275.019531 195.101562 272.515625 170.527344 260.410156 157.335938 C 253.691406 150.011719 243.882812 146.078125 231.253906 145.632812 C 231.195312 145.632812 231.136719 145.632812 231.078125 145.632812 C 228.394531 145.632812 226.179688 147.753906 226.085938 150.453125 C 225.988281 153.210938 228.148438 155.527344 230.902344 155.621094 C 240.757812 155.96875 248.207031 158.816406 253.042969 164.089844 C 262.90625 174.839844 265.222656 197.585938 267.085938 215.859375 C 267.296875 217.925781 267.503906 219.941406 267.714844 221.890625 C 268.417969 228.40625 267.40625 237.632812 265.78125 239.523438 C 264.480469 241.039062 260.160156 240.886719 256.351562 240.757812 C 254.167969 240.679688 251.910156 240.601562 249.730469 240.777344 C 242.527344 241.355469 236.464844 242 231.597656 242.515625 C 217.007812 244.070312 211.429688 244.660156 205.167969 241.007812 C 204.300781 239.867188 202.308594 235.253906 200.558594 216.648438 L 200.421875 215.253906 C 200.152344 212.503906 197.722656 210.507812 194.960938 210.769531 C 194.171875 210.847656 193.453125 211.125 192.824219 211.515625 C 192.191406 211.125 191.476562 210.847656 190.683594 210.769531 C 187.9375 210.507812 185.492188 212.503906 185.21875 215.253906 L 185.085938 216.648438 C 183.339844 235.253906 181.347656 239.867188 180.476562 241.007812 C 174.21875 244.660156 168.636719 244.066406 154.046875 242.515625 C 149.179688 242 143.117188 241.355469 135.917969 240.777344 C 133.730469 240.601562 131.476562 240.679688 129.292969 240.757812 C 125.480469 240.886719 121.164062 241.039062 119.863281 239.523438 C 118.238281 237.632812 117.226562 228.40625 117.929688 221.890625 C 118.140625 219.941406 118.34375 217.917969 118.554688 215.851562 C 120.421875 197.578125 122.738281 174.835938 132.601562 164.089844 C 137.441406 158.816406 144.886719 155.96875 154.742188 155.621094 C 157.496094 155.527344 159.65625 153.210938 159.558594 150.453125 C 159.464844 147.695312 157.164062 145.515625 154.390625 145.632812 C 141.761719 146.078125 131.953125 150.011719 125.234375 157.335938 " fill-opacity="1" fill-rule="nonzero"/></svg>