<svg xmlns="http://www.w3.org/2000/svg" xmlns:xlink="http://www.w3.org/1999/xlink" width="500" zoomAndPan="magnify" viewBox="0 0 375 374.999991" height="500" preserveAspectRatio="xMidYMid meet" version="1.0"><defs><clipPath id="c53dcea3fd"><path d="M 103.042969 10.027344 L 263.464844 10.027344 L 263.464844 364.621094 L 103.042969 364.621094 Z M 103.042969 10.027344 " clip-rule="nonzero"/></clipPath><clipPath id="8bc0702082"><path d="M 283 206 L 361.8125 206 L 361.8125 216 L 283 216 Z M 283 206 " clip-rule="nonzero"/></clipPath><clipPath id="9521eb6fa1"><path d="M 13.0625 206 L 91 206 L 91 216 L 13.0625 216 Z M 13.0625 206 " clip-rule="nonzero"/></clipPath></defs><g clip-path="url(#c53dcea3fd)"><path fill="#69472a" d="M 161.101562 337.132812 L 174.367188 220.773438 C 174.535156 219.304688 173.9375 217.84375 172.78125 216.914062 C 172 216.285156 171.039062 215.957031 170.070312 215.957031 C 169.59375 215.957031 169.128906 216.035156 168.675781 216.1875 L 116.164062 234.074219 L 211.046875 40.882812 L 191.109375 178.601562 C 190.894531 180.113281 191.492188 181.628906 192.671875 182.585938 C 193.859375 183.542969 195.464844 183.808594 196.902344 183.277344 L 249.898438 163.632812 Z M 257.304688 151.660156 L 200.722656 172.640625 L 223.539062 14.96875 C 223.84375 12.863281 222.566406 10.847656 220.539062 10.21875 C 218.503906 9.589844 216.308594 10.535156 215.375 12.445312 L 103.792969 239.625 C 103.019531 241.195312 103.277344 243.074219 104.429688 244.386719 C 105.589844 245.703125 107.417969 246.1875 109.070312 245.625 L 164.992188 226.578125 L 149.808594 359.808594 C 149.574219 361.882812 150.859375 363.832031 152.859375 364.4375 C 153.273438 364.558594 153.691406 364.621094 154.105469 364.621094 C 155.695312 364.621094 157.203125 363.738281 157.957031 362.265625 L 262.664062 157.683594 C 263.472656 156.097656 263.230469 154.171875 262.042969 152.839844 C 260.859375 151.507812 258.980469 151.039062 257.304688 151.660156 " fill-opacity="1" fill-rule="nonzero"/></g><g clip-path="url(#8bc0702082)"><path fill="#69472a" d="M 357.488281 206.945312 L 288.304688 206.945312 C 285.914062 206.945312 283.976562 208.878906 283.976562 211.269531 C 283.976562 213.65625 285.914062 215.59375 288.304688 215.59375 L 357.488281 215.59375 C 359.875 215.59375 361.8125 213.65625 361.8125 211.269531 C 361.8125 208.878906 359.875 206.945312 357.488281 206.945312 " fill-opacity="1" fill-rule="nonzero"/></g><path fill="#69472a" d="M 284.917969 136.003906 C 286.023438 136.003906 287.132812 135.582031 287.976562 134.738281 L 336.894531 85.847656 C 338.585938 84.160156 338.585938 81.421875 336.894531 79.734375 C 335.207031 78.042969 332.46875 78.046875 330.777344 79.734375 L 281.859375 128.621094 C 280.167969 130.3125 280.167969 133.050781 281.859375 134.738281 C 282.703125 135.582031 283.808594 136.003906 284.917969 136.003906 " fill-opacity="1" fill-rule="nonzero"/><path fill="#69472a" d="M 287.976562 287.796875 C 286.289062 286.109375 283.546875 286.109375 281.859375 287.796875 C 280.167969 289.488281 280.167969 292.226562 281.859375 293.914062 L 330.777344 342.804688 C 331.621094 343.648438 332.730469 344.070312 333.835938 344.070312 C 334.945312 344.070312 336.050781 343.648438 336.894531 342.804688 C 338.585938 341.113281 338.585938 338.378906 336.894531 336.691406 L 287.976562 287.796875 " fill-opacity="1" fill-rule="nonzero"/><g clip-path="url(#9521eb6fa1)"><path fill="#69472a" d="M 90.902344 211.269531 C 90.902344 208.878906 88.964844 206.945312 86.574219 206.945312 L 17.390625 206.945312 C 15 206.945312 13.0625 208.878906 13.0625 211.269531 C 13.0625 213.65625 15 215.59375 17.390625 215.59375 L 86.574219 215.59375 C 88.964844 215.59375 90.902344 213.65625 90.902344 211.269531 " fill-opacity="1" fill-rule="nonzero"/></g><path fill="#69472a" d="M 44.101562 79.734375 C 42.410156 78.046875 39.671875 78.046875 37.984375 79.734375 C 36.292969 81.421875 36.292969 84.160156 37.984375 85.847656 L 86.902344 134.738281 C 87.746094 135.582031 88.851562 136.003906 89.960938 136.003906 C 91.070312 136.003906 92.175781 135.582031 93.019531 134.738281 C 94.710938 133.050781 94.710938 130.3125 93.019531 128.621094 L 44.101562 79.734375 " fill-opacity="1" fill-rule="nonzero"/><path fill="#69472a" d="M 86.902344 287.796875 L 37.984375 336.691406 C 36.292969 338.378906 36.292969 341.113281 37.984375 342.804688 C 38.828125 343.648438 39.933594 344.070312 41.039062 344.070312 C 42.148438 344.070312 43.253906 343.648438 44.101562 342.804688 L 93.019531 293.914062 C 94.710938 292.226562 94.710938 289.488281 93.019531 287.796875 C 91.332031 286.109375 88.589844 286.109375 86.902344 287.796875 " fill-opacity="1" fill-rule="nonzero"/></svg>