<svg xmlns="http://www.w3.org/2000/svg" xmlns:xlink="http://www.w3.org/1999/xlink" width="500" zoomAndPan="magnify" viewBox="0 0 375 374.999991" height="500" preserveAspectRatio="xMidYMid meet" version="1.0"><path fill="#879e5f" d="M 341.601562 187.507812 C 341.601562 272.609375 272.609375 341.601562 187.507812 341.601562 C 102.40625 341.601562 33.414062 272.609375 33.414062 187.507812 C 33.414062 102.40625 102.40625 33.414062 187.507812 33.414062 C 272.609375 33.414062 341.601562 102.40625 341.601562 187.507812 " fill-opacity="1" fill-rule="nonzero"/><path fill="#879e5f" d="M 187.507812 9.789062 C 89.515625 9.789062 9.789062 89.515625 9.789062 187.507812 C 9.789062 285.503906 89.515625 365.226562 187.507812 365.226562 C 285.503906 365.226562 365.226562 285.503906 365.226562 187.507812 C 365.226562 89.515625 285.503906 9.789062 187.507812 9.789062 Z M 187.507812 375.015625 C 162.195312 375.015625 137.640625 370.058594 114.519531 360.277344 C 92.191406 350.835938 72.140625 337.316406 54.921875 320.097656 C 37.703125 302.875 24.179688 282.824219 14.738281 260.496094 C 4.957031 237.375 0 212.820312 0 187.507812 C 0 162.195312 4.957031 137.640625 14.738281 114.519531 C 24.179688 92.191406 37.703125 72.140625 54.921875 54.921875 C 72.140625 37.703125 92.191406 24.179688 114.519531 14.738281 C 137.640625 4.957031 162.195312 0 187.507812 0 C 212.820312 0 237.375 4.957031 260.496094 14.738281 C 282.824219 24.179688 302.875 37.703125 320.097656 54.921875 C 337.316406 72.140625 350.835938 92.191406 360.277344 114.519531 C 370.058594 137.640625 375.015625 162.195312 375.015625 187.507812 C 375.015625 212.820312 370.058594 237.375 360.277344 260.496094 C 350.835938 282.824219 337.316406 302.875 320.097656 320.097656 C 302.875 337.316406 282.824219 350.835938 260.496094 360.277344 C 237.375 370.058594 212.820312 375.015625 187.507812 375.015625 " fill-opacity="1" fill-rule="nonzero"/><path fill="#ffffff" d="M 187.507812 89.175781 C 162.433594 89.175781 139.554688 98.570312 122.183594 114.023438 C 122 130.25 127.847656 143.011719 128.765625 144.941406 C 140.972656 170.589844 167.773438 181.65625 194.320312 192.617188 C 227.359375 206.257812 240.003906 202.3125 251.785156 217.304688 C 261.1875 229.269531 261.203125 242.046875 262.929688 250.59375 C 277.226562 233.519531 285.839844 211.519531 285.839844 187.507812 C 285.839844 133.203125 241.816406 89.175781 187.507812 89.175781 " fill-opacity="1" fill-rule="nonzero"/><path fill="#ffffff" d="M 123.65625 195.171875 C 108.132812 175.1875 104.425781 153.003906 103.480469 136.410156 C 94.40625 151.300781 89.175781 168.792969 89.175781 187.507812 C 89.175781 241.816406 133.203125 285.839844 187.507812 285.839844 C 189.121094 285.839844 190.726562 285.796875 192.320312 285.71875 C 189.949219 270.074219 181.308594 251.808594 172.183594 239.015625 C 154.835938 214.695312 140.546875 216.910156 123.65625 195.171875 " fill-opacity="1" fill-rule="nonzero"/><path fill="#879e5f" d="M 241.992188 152.816406 C 241.992188 166.097656 231.226562 176.867188 217.941406 176.867188 C 204.660156 176.867188 193.894531 166.097656 193.894531 152.816406 C 193.894531 139.535156 204.660156 128.765625 217.941406 128.765625 C 231.226562 128.765625 241.992188 139.535156 241.992188 152.816406 " fill-opacity="1" fill-rule="nonzero"/></svg>