<svg xmlns="http://www.w3.org/2000/svg" xmlns:xlink="http://www.w3.org/1999/xlink" width="500" zoomAndPan="magnify" viewBox="0 0 375 374.999991" height="500" preserveAspectRatio="xMidYMid meet" version="1.0"><defs><clipPath id="f5f9dd1d0b"><path d="M 30.683594 0 L 344.183594 0 L 344.183594 375 L 30.683594 375 Z M 30.683594 0 " clip-rule="nonzero"/></clipPath></defs><g clip-path="url(#f5f9dd1d0b)"><path fill="#69472a" d="M 300.667969 217.015625 C 299.796875 217.015625 299.796875 217.015625 300.667969 217.015625 L 299.796875 209.203125 C 299.796875 204.859375 296.328125 201.390625 291.988281 200.519531 C 289.386719 200.519531 286.785156 199.652344 284.179688 199.652344 C 284.179688 199.652344 283.3125 198.785156 283.3125 198.785156 C 266.828125 184.027344 248.605469 173.609375 229.515625 167.535156 C 257.28125 152.777344 276.371094 123.265625 276.371094 89.410156 C 276.371094 39.929688 236.457031 0 186.996094 0 C 137.539062 0 97.625 39.929688 97.625 89.410156 C 97.625 123.265625 116.714844 152.777344 144.480469 167.535156 C 125.390625 173.609375 107.167969 184.027344 90.683594 197.917969 C 90.683594 197.917969 89.816406 198.785156 89.816406 199.652344 C 87.210938 199.652344 84.609375 199.652344 82.007812 200.519531 C 77.667969 201.390625 74.195312 204.859375 74.195312 209.203125 L 74.195312 216.144531 C 73.328125 217.015625 72.460938 217.015625 72.460938 217.882812 C 46.429688 251.734375 30.8125 297.742188 30.8125 341.144531 C 30.8125 346.355469 34.28125 349.828125 39.488281 349.828125 L 75.066406 349.828125 C 75.066406 351.5625 75.933594 353.296875 77.667969 354.167969 C 79.402344 355.902344 82.007812 356.769531 84.609375 356.769531 C 146.214844 350.695312 182.660156 373.265625 182.660156 374.132812 C 182.660156 374.132812 183.527344 374.132812 183.527344 375 C 183.527344 375 184.394531 375 184.394531 375 C 185.261719 375 185.261719 375 186.128906 375 C 186.128906 375 186.996094 375 186.996094 375 C 187.867188 375 188.734375 375 189.601562 375 C 189.601562 375 189.601562 375 190.46875 375 C 191.335938 375 191.335938 375 192.203125 374.132812 C 192.203125 374.132812 228.648438 350.695312 290.253906 356.769531 C 292.855469 356.769531 295.460938 355.902344 297.195312 354.167969 C 298.0625 353.296875 298.929688 351.5625 299.796875 349.828125 L 335.375 349.828125 C 340.582031 349.828125 344.050781 346.355469 344.050781 341.144531 C 344.050781 294.269531 328.433594 250 300.667969 217.015625 Z M 114.980469 89.410156 C 114.980469 49.480469 147.082031 17.359375 186.996094 17.359375 C 226.910156 17.359375 259.015625 49.480469 259.015625 89.410156 C 259.015625 129.339844 226.910156 161.457031 186.996094 161.457031 C 147.082031 161.457031 114.980469 129.339844 114.980469 89.410156 Z M 255.546875 199.652344 C 219.96875 202.257812 196.542969 212.671875 186.996094 217.882812 C 177.453125 212.671875 154.027344 202.257812 118.449219 199.652344 C 139.273438 185.765625 162.703125 178.820312 186.996094 178.820312 C 211.292969 178.820312 234.722656 185.765625 255.546875 199.652344 Z M 74.195312 246.527344 L 74.195312 332.464844 L 48.167969 332.464844 C 49.035156 302.953125 58.578125 271.703125 74.195312 246.527344 Z M 282.445312 338.542969 C 232.117188 335.070312 199.144531 349.828125 186.996094 356.769531 C 174.851562 350.695312 141.878906 335.9375 91.550781 338.542969 L 91.550781 217.015625 C 147.953125 213.542969 181.792969 234.375 182.660156 234.375 C 183.527344 234.375 184.394531 235.242188 184.394531 235.242188 C 184.394531 235.242188 185.261719 235.242188 185.261719 235.242188 C 186.128906 235.242188 186.996094 235.242188 187.867188 235.242188 C 187.867188 235.242188 188.734375 235.242188 188.734375 235.242188 C 189.601562 235.242188 190.46875 234.375 191.335938 234.375 C 191.335938 234.375 191.335938 234.375 192.203125 234.375 C 193.070312 233.507812 226.042969 212.671875 282.445312 217.015625 Z M 299.796875 332.464844 L 299.796875 246.527344 C 315.417969 271.703125 324.960938 301.214844 325.828125 332.464844 Z M 299.796875 332.464844 " fill-opacity="1" fill-rule="nonzero"/></g></svg>