<svg xmlns="http://www.w3.org/2000/svg" xmlns:xlink="http://www.w3.org/1999/xlink" width="500" zoomAndPan="magnify" viewBox="0 0 375 374.999991" height="500" preserveAspectRatio="xMidYMid meet" version="1.0"><defs><clipPath id="e36c0afeb3"><path d="M 0 112.03125 L 375 112.03125 L 375 249 L 0 249 Z M 0 112.03125 " clip-rule="nonzero"/></clipPath></defs><g clip-path="url(#e36c0afeb3)"><path fill="#000000" d="M 367.230469 113.792969 C 364.4375 116.738281 361.5 119.554688 358.558594 122.363281 C 356.230469 120.9375 353.519531 120.070312 350.589844 120.070312 C 342.136719 120.070312 335.261719 126.933594 335.261719 135.371094 C 335.261719 137.402344 335.679688 139.335938 336.402344 141.113281 C 324.269531 150.238281 311.507812 158.046875 298.292969 164.660156 C 302.816406 159.957031 305.632812 153.601562 305.632812 146.578125 C 305.632812 132.144531 293.882812 120.402344 279.433594 120.402344 C 264.984375 120.402344 253.226562 132.144531 253.226562 146.578125 C 253.226562 161.007812 264.984375 172.746094 279.433594 172.746094 C 279.90625 172.746094 280.34375 172.632812 280.808594 172.609375 C 277.265625 174.050781 273.707031 175.445312 270.113281 176.71875 C 268.691406 173.148438 266.382812 169.988281 263.230469 167.609375 C 258.699219 164.179688 253.101562 162.730469 247.421875 163.496094 C 246.730469 163.59375 246.058594 163.722656 245.378906 163.882812 L 179.957031 179.570312 L 155.179688 147.175781 C 147.589844 137.273438 133.355469 135.367188 123.433594 142.933594 C 122.371094 143.75 121.382812 144.652344 120.46875 145.648438 L 103.097656 164.609375 L 64.191406 146.359375 C 58.632812 143.753906 52.246094 144.175781 46.964844 147.054688 C 44.152344 145.117188 41.34375 143.179688 38.59375 141.113281 C 39.316406 139.335938 39.734375 137.402344 39.734375 135.371094 C 39.734375 126.933594 32.859375 120.070312 24.40625 120.070312 C 21.480469 120.070312 18.765625 120.9375 16.4375 122.363281 C 13.496094 119.554688 10.558594 116.738281 7.765625 113.792969 C 6.136719 112.074219 3.445312 112.007812 1.753906 113.628906 C 0.0507812 115.242188 -0.0234375 117.929688 1.585938 119.628906 C 4.535156 122.734375 7.617188 125.699219 10.710938 128.652344 C 9.703125 130.6875 9.085938 132.949219 9.085938 135.371094 C 9.085938 143.808594 15.960938 150.675781 24.40625 150.675781 C 25.25 150.675781 26.0625 150.5625 26.867188 150.429688 C 58.925781 212.199219 122.140625 248.027344 187.789062 248.027344 C 214.6875 248.027344 241.980469 242.019531 267.683594 229.339844 C 302.070312 212.371094 330.453125 184.394531 348.109375 150.425781 C 348.921875 150.5625 349.742188 150.675781 350.589844 150.675781 C 359.035156 150.675781 365.914062 143.808594 365.914062 135.371094 C 365.914062 132.949219 365.292969 130.6875 364.289062 128.652344 C 367.378906 125.699219 370.464844 122.734375 373.410156 119.628906 C 375.023438 117.929688 374.945312 115.242188 373.246094 113.628906 C 371.542969 112.011719 368.851562 112.082031 367.230469 113.792969 Z M 261.730469 146.578125 C 261.730469 136.828125 269.667969 128.894531 279.433594 128.894531 C 289.191406 128.894531 297.128906 136.828125 297.128906 146.578125 C 297.128906 156.324219 289.191406 164.253906 279.433594 164.253906 C 269.667969 164.253906 261.730469 156.324219 261.730469 146.578125 Z M 126.738281 151.382812 C 127.308594 150.765625 127.933594 150.191406 128.597656 149.6875 C 131.601562 147.390625 135.347656 146.429688 139.050781 146.90625 C 142.796875 147.410156 146.128906 149.339844 148.417969 152.335938 L 174.875 186.921875 C 175.691406 187.988281 176.953125 188.589844 178.253906 188.589844 C 178.589844 188.589844 178.921875 188.550781 179.253906 188.472656 L 247.363281 172.140625 C 247.769531 172.042969 248.191406 171.964844 248.601562 171.90625 C 252.03125 171.429688 255.375 172.324219 258.101562 174.382812 C 259.847656 175.703125 261.019531 177.488281 261.890625 179.429688 C 226.382812 190.605469 188.957031 193.582031 152.402344 188.359375 L 139.949219 172.078125 C 139.183594 171.082031 138.015625 170.472656 136.761719 170.417969 C 135.507812 170.320312 134.277344 170.859375 133.429688 171.792969 L 123.625 182.503906 C 116.976562 180.734375 110.398438 178.671875 103.886719 176.335938 Z M 60.570312 154.050781 L 97.085938 171.175781 L 95.359375 173.058594 C 81.851562 167.640625 68.710938 161.042969 56.109375 153.148438 C 57.628906 153.152344 59.152344 153.378906 60.570312 154.050781 Z M 17.589844 135.371094 C 17.589844 131.617188 20.644531 128.5625 24.40625 128.5625 C 28.167969 128.5625 31.230469 131.617188 31.230469 135.371094 C 31.230469 139.128906 28.167969 142.183594 24.40625 142.183594 C 20.644531 142.183594 17.589844 139.128906 17.589844 135.371094 Z M 263.914062 221.726562 C 180.859375 262.699219 80.511719 230.375 36.394531 149.964844 C 38.6875 151.640625 40.992188 153.292969 43.324219 154.882812 C 43.328125 154.886719 43.328125 154.890625 43.332031 154.894531 C 43.78125 155.441406 44.355469 155.792969 44.96875 156.050781 C 60.589844 166.515625 77.082031 175.007812 94.128906 181.679688 C 94.648438 182.015625 95.199219 182.226562 95.785156 182.316406 C 104.894531 185.808594 114.113281 188.894531 123.484375 191.308594 C 123.542969 191.328125 123.597656 191.339844 123.652344 191.355469 C 132.257812 193.570312 140.953125 195.277344 149.703125 196.582031 C 149.863281 196.597656 150.011719 196.6875 150.171875 196.6875 C 150.210938 196.6875 150.242188 196.652344 150.28125 196.652344 C 162.621094 198.457031 175.050781 199.5 187.5 199.5 C 240.636719 199.5 293.675781 182.835938 338.726562 149.875 C 321.800781 180.722656 295.542969 206.121094 263.914062 221.726562 Z M 350.589844 142.183594 C 346.828125 142.183594 343.765625 139.128906 343.765625 135.371094 C 343.765625 131.617188 346.828125 128.5625 350.589844 128.5625 C 354.351562 128.5625 357.410156 131.617188 357.410156 135.371094 C 357.410156 139.128906 354.351562 142.183594 350.589844 142.183594 Z M 350.589844 142.183594 " fill-opacity="1" fill-rule="nonzero"/></g></svg>