<svg xmlns="http://www.w3.org/2000/svg" xmlns:xlink="http://www.w3.org/1999/xlink" width="500" zoomAndPan="magnify" viewBox="0 0 375 374.999991" height="500" preserveAspectRatio="xMidYMid meet" version="1.0"><defs><clipPath id="a04986212e"><path d="M 0 25.117188 L 375 25.117188 L 375 357.367188 L 0 357.367188 Z M 0 25.117188 " clip-rule="nonzero"/></clipPath><clipPath id="367766fc1c"><path d="M 84.644531 92.613281 L 288.644531 92.613281 L 288.644531 242.613281 L 84.644531 242.613281 Z M 84.644531 92.613281 " clip-rule="nonzero"/></clipPath></defs><g clip-path="url(#a04986212e)"><path fill="#69472a" d="M 187.5 357.28125 L 183.523438 354.582031 C 183.074219 354.285156 137.398438 323.09375 92.398438 279.980469 C 65.851562 254.488281 44.625 229.894531 29.324219 206.800781 C 9.898438 177.257812 0 149.890625 0 125.597656 C 0 70.265625 45.074219 25.203125 100.425781 25.203125 C 120.976562 25.203125 140.851562 31.5 157.800781 43.496094 C 170.101562 52.195312 180.148438 63.289062 187.5 76.039062 C 194.851562 63.214844 204.898438 52.117188 217.199219 43.496094 C 234.148438 31.5 254.023438 25.203125 274.574219 25.203125 C 329.925781 25.203125 375 70.265625 375 125.597656 L 375 125.671875 C 374.773438 149.816406 364.800781 176.957031 345.300781 206.425781 C 330 229.519531 308.851562 254.113281 282.300781 279.679688 C 237.375 322.941406 191.925781 354.285156 191.476562 354.582031 Z M 100.425781 39.222656 C 52.800781 39.222656 14.023438 77.988281 14.023438 125.597656 C 14.023438 147.117188 23.101562 171.785156 41.023438 198.925781 C 55.648438 221.121094 76.199219 244.964844 102 269.707031 C 138.523438 304.722656 175.574219 331.789062 187.5 340.1875 C 199.425781 331.714844 236.25 304.496094 272.699219 269.40625 C 298.425781 244.589844 318.898438 220.820312 333.601562 198.628906 C 351.523438 171.484375 360.75 146.96875 360.898438 125.597656 C 360.898438 77.988281 322.125 39.296875 274.5 39.296875 C 239.175781 39.296875 206.851562 61.640625 193.949219 94.933594 L 187.425781 111.878906 L 180.976562 94.933594 C 168.074219 61.640625 135.75 39.222656 100.425781 39.222656 Z M 100.425781 39.222656 " fill-opacity="1" fill-rule="nonzero"/></g><g clip-path="url(#367766fc1c)"><path fill="#69472a" d="M 272.632812 153.25 L 251.398438 153.25 L 192.953125 109.320312 C 194.925781 107.566406 196.199219 105.03125 196.199219 102.1875 C 196.199219 96.90625 191.910156 92.613281 186.644531 92.613281 C 181.375 92.613281 177.089844 96.90625 177.089844 102.1875 C 177.089844 105.03125 178.359375 107.566406 180.335938 109.320312 L 121.886719 153.25 L 100.652344 153.25 C 91.875 153.25 84.730469 160.410156 84.730469 169.207031 L 84.730469 226.652344 C 84.730469 235.453125 91.875 242.613281 100.652344 242.613281 L 272.632812 242.613281 C 281.414062 242.613281 288.558594 235.453125 288.558594 226.652344 L 288.558594 169.207031 C 288.558594 160.410156 281.414062 153.25 272.632812 153.25 Z M 186.644531 98.996094 C 188.398438 98.996094 189.828125 100.425781 189.828125 102.1875 C 189.828125 103.945312 188.398438 105.378906 186.644531 105.378906 C 184.890625 105.378906 183.457031 103.945312 183.457031 102.1875 C 183.457031 100.425781 184.890625 98.996094 186.644531 98.996094 Z M 186.644531 112.558594 L 240.785156 153.25 L 132.5 153.25 Z M 282.1875 226.652344 C 282.1875 231.933594 277.902344 236.230469 272.632812 236.230469 L 100.652344 236.230469 C 95.386719 236.230469 91.097656 231.933594 91.097656 226.652344 L 91.097656 169.207031 C 91.097656 163.929688 95.386719 159.632812 100.652344 159.632812 L 272.632812 159.632812 C 277.902344 159.632812 282.1875 163.929688 282.1875 169.207031 Z M 282.1875 226.652344 " fill-opacity="1" fill-rule="nonzero"/></g><path fill="#69472a" d="M 193.011719 178.78125 L 193.011719 217.078125 C 193.011719 218.839844 194.441406 220.269531 196.199219 220.269531 L 215.308594 220.269531 L 215.308594 213.886719 L 199.382812 213.886719 L 199.382812 201.121094 L 215.308594 201.121094 L 215.308594 194.738281 L 199.382812 194.738281 L 199.382812 181.972656 L 215.308594 181.972656 L 215.308594 175.589844 L 196.199219 175.589844 C 194.441406 175.589844 193.011719 177.019531 193.011719 178.78125 Z M 193.011719 178.78125 " fill-opacity="1" fill-rule="nonzero"/><path fill="#69472a" d="M 240.785156 203.558594 L 227.707031 177.355469 C 227.050781 176.035156 225.578125 175.339844 224.128906 175.675781 C 222.691406 176.015625 221.675781 177.300781 221.675781 178.78125 L 221.675781 220.269531 L 228.046875 220.269531 L 228.046875 192.300781 L 241.121094 218.507812 C 241.671875 219.605469 242.78125 220.269531 243.96875 220.269531 C 244.210938 220.269531 244.457031 220.242188 244.703125 220.183594 C 246.140625 219.847656 247.15625 218.558594 247.15625 217.078125 L 247.15625 175.589844 L 240.785156 175.589844 Z M 240.785156 203.558594 " fill-opacity="1" fill-rule="nonzero"/><path fill="#69472a" d="M 142.054688 175.589844 C 135.03125 175.589844 129.316406 181.316406 129.316406 188.355469 L 129.316406 207.503906 C 129.316406 214.546875 135.03125 220.269531 142.054688 220.269531 C 149.082031 220.269531 154.796875 214.546875 154.796875 207.503906 L 154.796875 188.355469 C 154.796875 181.316406 149.082031 175.589844 142.054688 175.589844 Z M 148.425781 207.503906 C 148.425781 211.023438 145.570312 213.886719 142.054688 213.886719 C 138.542969 213.886719 135.6875 211.023438 135.6875 207.503906 L 135.6875 188.355469 C 135.6875 184.835938 138.542969 181.972656 142.054688 181.972656 C 145.570312 181.972656 148.425781 184.835938 148.425781 188.355469 Z M 148.425781 207.503906 " fill-opacity="1" fill-rule="nonzero"/><path fill="#69472a" d="M 173.90625 175.589844 L 164.351562 175.589844 C 162.59375 175.589844 161.164062 177.019531 161.164062 178.78125 L 161.164062 220.269531 L 167.535156 220.269531 L 167.535156 201.121094 L 173.90625 201.121094 C 180.929688 201.121094 186.644531 195.398438 186.644531 188.355469 C 186.644531 181.316406 180.929688 175.589844 173.90625 175.589844 Z M 173.90625 194.738281 L 167.535156 194.738281 L 167.535156 181.972656 L 173.90625 181.972656 C 177.417969 181.972656 180.273438 184.835938 180.273438 188.355469 C 180.273438 191.875 177.417969 194.738281 173.90625 194.738281 Z M 173.90625 194.738281 " fill-opacity="1" fill-rule="nonzero"/></svg>