<svg xmlns="http://www.w3.org/2000/svg" xmlns:xlink="http://www.w3.org/1999/xlink" width="500" zoomAndPan="magnify" viewBox="0 0 375 374.999991" height="500" preserveAspectRatio="xMidYMid meet" version="1.0"><defs><clipPath id="3566887136"><path d="M 2 34 L 363 34 L 363 350.90625 L 2 350.90625 Z M 2 34 " clip-rule="nonzero"/></clipPath></defs><g clip-path="url(#3566887136)"><path fill="#000000" d="M 182.507812 351.617188 C 178.308594 351.617188 174.269531 349.957031 171.339844 346.949219 L 31.90625 207.675781 C 12.734375 188.515625 2.121094 163.019531 2.121094 135.863281 C 2.121094 108.703125 12.734375 83.210938 31.90625 63.96875 C 71.597656 24.300781 136.085938 24.300781 175.773438 63.96875 L 182.507812 70.699219 L 189.164062 63.96875 C 228.855469 24.382812 293.339844 24.300781 333.03125 63.96875 C 372.722656 103.636719 372.722656 168.085938 333.03125 207.753906 L 193.679688 347.027344 C 190.75 349.957031 186.707031 351.617188 182.507812 351.617188 Z M 103.839844 65.871094 C 85.9375 65.871094 67.953125 72.679688 54.328125 86.296875 C 41.097656 99.519531 33.808594 117.097656 33.808594 135.863281 C 33.808594 154.546875 41.097656 172.125 54.328125 185.347656 L 182.507812 313.457031 L 310.691406 185.347656 C 338.023438 158.03125 338.023438 113.613281 310.691406 86.375 C 283.359375 59.0625 238.914062 59.0625 211.664062 86.375 L 196.371094 101.5 C 193.363281 104.507812 189.402344 106.171875 185.125 106.171875 L 179.734375 106.171875 C 175.539062 106.171875 171.496094 104.507812 168.566406 101.5 L 153.355469 86.296875 C 139.730469 72.679688 121.746094 65.871094 103.839844 65.871094 Z M 103.839844 65.871094 " fill-opacity="1" fill-rule="nonzero"/></g></svg>