<svg xmlns="http://www.w3.org/2000/svg" xmlns:xlink="http://www.w3.org/1999/xlink" width="500" zoomAndPan="magnify" viewBox="0 0 375 374.999991" height="500" preserveAspectRatio="xMidYMid meet" version="1.0"><defs><clipPath id="ef4136b13f"><path d="M 6.09375 190 L 20 190 L 20 204 L 6.09375 204 Z M 6.09375 190 " clip-rule="nonzero"/></clipPath><clipPath id="0469bc1694"><path d="M 6.09375 164 L 21 164 L 21 179 L 6.09375 179 Z M 6.09375 164 " clip-rule="nonzero"/></clipPath></defs><path fill="#69472a" d="M 154.613281 87.5 L 139.527344 87.5 C 124.492188 87.5 110.359375 93.351562 99.734375 103.976562 L 26.839844 176.832031 C 25.667969 178 25.007812 179.59375 25.007812 181.25 C 25.007812 182.90625 25.667969 184.5 26.839844 185.671875 L 58.105469 216.921875 C 60.550781 219.363281 64.507812 219.363281 66.949219 216.921875 L 125.0625 158.839844 L 125.0625 223.945312 L 75.382812 366.695312 C 74.71875 368.605469 75.015625 370.71875 76.191406 372.371094 C 77.367188 374.019531 79.265625 375.003906 81.285156 375.003906 L 137.566406 375.003906 C 140.226562 375.003906 142.597656 373.316406 143.46875 370.804688 L 187.9375 243.039062 L 238.042969 371.03125 C 238.988281 373.425781 241.296875 375 243.871094 375 L 300.152344 375 C 302.214844 375 304.152344 373.980469 305.316406 372.273438 C 306.484375 370.566406 306.726562 368.394531 305.976562 366.472656 L 250.128906 223.824219 L 250.128906 158.835938 L 308.242188 216.917969 C 310.683594 219.359375 314.640625 219.359375 317.082031 216.917969 L 348.351562 185.667969 C 349.523438 184.5 350.183594 182.90625 350.183594 181.25 C 350.183594 179.59375 349.523438 178 348.351562 176.828125 L 275.457031 103.972656 C 264.832031 93.347656 250.699219 87.5 235.667969 87.5 L 220.578125 87.5 C 231.003906 78.328125 237.625 64.9375 237.625 50 C 237.625 22.429688 215.183594 0 187.597656 0 C 160.015625 0 137.574219 22.429688 137.574219 50 C 137.574219 64.9375 144.195312 78.328125 154.621094 87.5 Z M 235.664062 100 C 247.355469 100 258.34375 104.550781 266.609375 112.8125 L 335.082031 181.25 L 312.660156 203.664062 L 248.296875 139.332031 C 246.507812 137.542969 243.820312 137.015625 241.480469 137.976562 C 239.140625 138.945312 237.621094 141.226562 237.621094 143.753906 L 237.621094 225.003906 C 237.621094 225.78125 237.769531 226.554688 238.050781 227.28125 L 290.996094 362.503906 L 248.144531 362.503906 L 193.421875 222.730469 C 192.484375 220.328125 190.171875 218.753906 187.601562 218.753906 L 187.480469 218.753906 C 184.867188 218.804688 182.558594 220.480469 181.695312 222.949219 L 133.132812 362.507812 L 90.09375 362.507812 L 137.230469 227.0625 C 137.464844 226.402344 137.582031 225.707031 137.582031 225.007812 L 137.582031 143.757812 C 137.582031 141.230469 136.0625 138.949219 133.722656 137.984375 C 131.382812 137.019531 128.695312 137.550781 126.90625 139.339844 L 62.542969 203.667969 L 40.121094 181.257812 L 108.59375 112.820312 C 116.867188 104.558594 127.847656 100.007812 139.539062 100.007812 L 235.675781 100.007812 Z M 187.59375 12.5 C 208.28125 12.5 225.113281 29.320312 225.113281 50 C 225.113281 70.679688 208.28125 87.5 187.59375 87.5 C 166.902344 87.5 150.074219 70.679688 150.074219 50 C 150.074219 29.320312 166.902344 12.5 187.59375 12.5 Z M 187.59375 12.5 " fill-opacity="1" fill-rule="nonzero"/><path fill="#69472a" d="M 183.292969 192.039062 C 184.5 193.179688 186.042969 193.75 187.59375 193.75 C 189.144531 193.75 190.691406 193.179688 191.898438 192.035156 L 218.714844 166.597656 C 222.847656 162.6875 225.117188 157.460938 225.117188 151.886719 C 225.117188 146.3125 222.84375 141.085938 218.722656 137.175781 C 210.4375 129.328125 196.945312 129.316406 188.660156 137.175781 C 188.652344 137.175781 188.652344 137.175781 188.652344 137.179688 L 187.597656 138.1875 L 186.535156 137.183594 C 178.261719 129.328125 164.765625 129.320312 156.476562 137.183594 C 152.351562 141.09375 150.082031 146.320312 150.082031 151.894531 C 150.082031 157.46875 152.351562 162.695312 156.472656 166.605469 L 183.300781 192.042969 Z M 165.074219 146.25 C 166.847656 144.570312 169.171875 143.730469 171.5 143.730469 C 173.828125 143.730469 176.152344 144.570312 177.921875 146.246094 L 183.285156 151.335938 C 185.703125 153.621094 189.476562 153.621094 191.894531 151.335938 L 197.257812 146.246094 C 200.800781 142.890625 206.558594 142.894531 210.113281 146.25 C 211.726562 147.773438 212.613281 149.773438 212.613281 151.886719 C 212.613281 154 211.726562 156 210.117188 157.527344 L 187.597656 178.890625 L 165.078125 157.535156 C 163.476562 156.003906 162.585938 154.003906 162.585938 151.890625 C 162.585938 149.777344 163.476562 147.777344 165.082031 146.253906 Z M 165.074219 146.25 " fill-opacity="1" fill-rule="nonzero"/><path fill="#69472a" d="M 317.21875 60.800781 C 314.15625 57.675781 310.96875 54.648438 307.75 51.804688 L 299.472656 61.171875 C 302.464844 63.816406 305.429688 66.636719 308.289062 69.546875 L 317.21875 60.796875 Z M 317.21875 60.800781 " fill-opacity="1" fill-rule="nonzero"/><path fill="#69472a" d="M 324 88.085938 L 334.101562 80.707031 C 331.53125 77.199219 328.8125 73.75 326.015625 70.453125 L 316.476562 78.535156 C 319.078125 81.609375 321.617188 84.824219 324 88.09375 Z M 324 88.085938 " fill-opacity="1" fill-rule="nonzero"/><path fill="#69472a" d="M 275.859375 29.191406 C 272.058594 27.070312 268.144531 25.066406 264.222656 23.238281 L 258.9375 34.566406 C 262.582031 36.265625 266.226562 38.128906 269.761719 40.101562 Z M 275.859375 29.191406 " fill-opacity="1" fill-rule="nonzero"/><path fill="#69472a" d="M 336.902344 108.675781 L 347.957031 102.820312 C 345.914062 98.980469 343.722656 95.175781 341.425781 91.511719 L 330.824219 98.144531 C 332.957031 101.566406 335.003906 105.109375 336.898438 108.683594 Z M 336.902344 108.675781 " fill-opacity="1" fill-rule="nonzero"/><path fill="#69472a" d="M 356.1875 178.417969 L 368.679688 177.753906 C 368.441406 173.394531 368.058594 169.023438 367.519531 164.753906 L 355.113281 166.308594 C 355.613281 170.277344 355.976562 174.351562 356.1875 178.414062 Z M 356.1875 178.417969 " fill-opacity="1" fill-rule="nonzero"/><path fill="#69472a" d="M 346.6875 130.90625 L 358.472656 126.707031 C 357.015625 122.625 355.390625 118.539062 353.636719 114.570312 L 342.195312 119.617188 C 343.820312 123.304688 345.339844 127.105469 346.683594 130.90625 Z M 346.6875 130.90625 " fill-opacity="1" fill-rule="nonzero"/><path fill="#69472a" d="M 350.878906 266.394531 L 339.628906 260.941406 C 337.878906 264.550781 335.960938 268.164062 333.933594 271.683594 L 344.765625 277.925781 C 346.949219 274.144531 349.003906 270.269531 350.882812 266.394531 Z M 350.878906 266.394531 " fill-opacity="1" fill-rule="nonzero"/><path fill="#69472a" d="M 360.527344 242.15625 L 348.605469 238.390625 C 347.378906 242.261719 346.011719 246.109375 344.527344 249.820312 L 356.140625 254.453125 C 357.738281 250.460938 359.210938 246.324219 360.527344 242.160156 Z M 360.527344 242.15625 " fill-opacity="1" fill-rule="nonzero"/><path fill="#69472a" d="M 337.832031 288.980469 L 327.476562 281.972656 C 325.230469 285.292969 322.816406 288.59375 320.300781 291.78125 L 330.121094 299.523438 C 332.835938 296.097656 335.429688 292.554688 337.835938 288.984375 Z M 337.832031 288.980469 " fill-opacity="1" fill-rule="nonzero"/><path fill="#69472a" d="M 303.929688 309.75 L 312.550781 318.808594 C 315.683594 315.828125 318.753906 312.691406 321.6875 309.480469 L 312.441406 301.058594 C 309.707031 304.050781 306.84375 306.976562 303.925781 309.75 Z M 303.929688 309.75 " fill-opacity="1" fill-rule="nonzero"/><path fill="#69472a" d="M 353.171875 154.304688 L 365.433594 151.863281 C 364.585938 147.585938 363.566406 143.3125 362.417969 139.152344 L 350.363281 142.492188 C 351.425781 146.363281 352.378906 150.335938 353.171875 154.3125 Z M 353.171875 154.304688 " fill-opacity="1" fill-rule="nonzero"/><path fill="#69472a" d="M 366.578125 216.78125 L 354.230469 214.773438 C 353.585938 218.753906 352.785156 222.761719 351.855469 226.683594 L 364.019531 229.570312 C 365.027344 225.359375 365.890625 221.050781 366.585938 216.777344 Z M 366.578125 216.78125 " fill-opacity="1" fill-rule="nonzero"/><path fill="#69472a" d="M 368.90625 190.792969 L 356.398438 190.582031 C 356.332031 194.613281 356.113281 198.695312 355.753906 202.707031 L 368.210938 203.824219 C 368.597656 199.511719 368.835938 195.128906 368.910156 190.792969 Z M 368.90625 190.792969 " fill-opacity="1" fill-rule="nonzero"/><path fill="#69472a" d="M 297.675781 43.511719 C 294.253906 40.894531 290.671875 38.351562 287.027344 35.957031 L 280.164062 46.40625 C 283.5625 48.632812 286.894531 51 290.082031 53.4375 Z M 297.675781 43.511719 " fill-opacity="1" fill-rule="nonzero"/><g clip-path="url(#ef4136b13f)"><path fill="#69472a" d="M 19.417969 202.507812 C 19.0625 198.515625 18.847656 194.429688 18.78125 190.359375 L 6.273438 190.574219 C 6.355469 194.9375 6.578125 199.320312 6.957031 203.605469 L 19.417969 202.503906 Z M 19.417969 202.507812 " fill-opacity="1" fill-rule="nonzero"/></g><g clip-path="url(#0469bc1694)"><path fill="#69472a" d="M 20.101562 166.101562 L 7.691406 164.523438 C 7.152344 168.792969 6.757812 173.164062 6.519531 177.523438 L 19 178.207031 C 19.226562 174.144531 19.59375 170.070312 20.101562 166.101562 Z M 20.101562 166.101562 " fill-opacity="1" fill-rule="nonzero"/></g><path fill="#69472a" d="M 24.886719 142.28125 L 12.832031 138.941406 C 11.683594 143.085938 10.664062 147.355469 9.796875 151.636719 L 22.058594 154.105469 C 22.867188 150.113281 23.8125 146.136719 24.886719 142.277344 Z M 24.886719 142.28125 " fill-opacity="1" fill-rule="nonzero"/><path fill="#69472a" d="M 116.445312 34.480469 L 111.167969 23.144531 C 107.222656 24.976562 103.308594 26.972656 99.527344 29.078125 L 105.613281 39.996094 C 109.125 38.039062 112.769531 36.183594 116.441406 34.480469 Z M 116.445312 34.480469 " fill-opacity="1" fill-rule="nonzero"/><path fill="#69472a" d="M 44.476562 97.960938 L 33.875 91.320312 C 31.574219 95 29.371094 98.796875 27.34375 102.621094 L 38.382812 108.484375 C 40.277344 104.929688 42.328125 101.390625 44.476562 97.960938 Z M 44.476562 97.960938 " fill-opacity="1" fill-rule="nonzero"/><path fill="#69472a" d="M 33.070312 119.414062 L 21.625 114.367188 C 19.855469 118.386719 18.226562 122.46875 16.789062 126.496094 L 28.5625 130.695312 C 29.902344 126.957031 31.414062 123.164062 33.070312 119.414062 Z M 33.070312 119.414062 " fill-opacity="1" fill-rule="nonzero"/><path fill="#69472a" d="M 75.875 61.023438 L 67.59375 51.65625 C 64.320312 54.546875 61.136719 57.566406 58.121094 60.640625 L 67.050781 69.394531 C 69.855469 66.542969 72.820312 63.722656 75.871094 61.03125 Z M 75.875 61.023438 " fill-opacity="1" fill-rule="nonzero"/><path fill="#69472a" d="M 71.164062 309.664062 C 68.195312 306.832031 65.339844 303.902344 62.664062 300.960938 L 53.40625 309.367188 C 56.28125 312.527344 59.347656 315.667969 62.53125 318.703125 L 71.160156 309.65625 Z M 71.164062 309.664062 " fill-opacity="1" fill-rule="nonzero"/><path fill="#69472a" d="M 58.839844 78.375 L 49.3125 70.277344 C 46.5 73.582031 43.773438 77.03125 41.214844 80.523438 L 51.304688 87.90625 C 53.6875 84.652344 56.21875 81.445312 58.839844 78.371094 Z M 58.839844 78.375 " fill-opacity="1" fill-rule="nonzero"/><path fill="#69472a" d="M 30.597656 249.675781 C 29.109375 245.917969 27.734375 242.0625 26.523438 238.21875 L 14.59375 241.976562 C 15.898438 246.109375 17.371094 250.25 18.96875 254.285156 L 30.597656 249.671875 Z M 30.597656 249.675781 " fill-opacity="1" fill-rule="nonzero"/><path fill="#69472a" d="M 95.207031 46.292969 L 88.355469 35.832031 C 84.753906 38.1875 81.167969 40.726562 77.695312 43.367188 L 85.277344 53.3125 C 88.503906 50.84375 91.84375 48.480469 95.210938 46.289062 Z M 95.207031 46.292969 " fill-opacity="1" fill-rule="nonzero"/><path fill="#69472a" d="M 8.570312 216.5625 C 9.253906 220.824219 10.117188 225.136719 11.125 229.378906 L 23.289062 226.5 C 22.351562 222.550781 21.554688 218.539062 20.917969 214.578125 L 8.570312 216.558594 Z M 8.570312 216.5625 " fill-opacity="1" fill-rule="nonzero"/><path fill="#69472a" d="M 41.179688 271.550781 C 39.175781 268.070312 37.265625 264.453125 35.496094 260.796875 L 24.234375 266.25 C 26.140625 270.171875 28.191406 274.050781 30.347656 277.789062 Z M 41.179688 271.550781 " fill-opacity="1" fill-rule="nonzero"/><path fill="#69472a" d="M 54.792969 291.667969 C 52.316406 288.523438 49.902344 285.222656 47.625 281.859375 L 37.269531 288.859375 C 39.710938 292.472656 42.304688 296.023438 44.972656 299.40625 L 54.792969 291.671875 Z M 54.792969 291.667969 " fill-opacity="1" fill-rule="nonzero"/><path fill="#69472a" d="M 194.109375 368.632812 C 198.464844 368.472656 202.847656 368.15625 207.148438 367.683594 L 205.78125 355.257812 C 201.785156 355.699219 197.707031 355.992188 193.65625 356.136719 L 194.109375 368.625 Z M 194.109375 368.632812 " fill-opacity="1" fill-rule="nonzero"/><path fill="#69472a" d="M 181.035156 368.632812 L 181.5 356.136719 C 177.472656 355.992188 173.386719 355.695312 169.363281 355.253906 L 168.007812 367.683594 C 172.335938 368.15625 176.71875 368.476562 181.035156 368.632812 Z M 181.035156 368.632812 " fill-opacity="1" fill-rule="nonzero"/></svg>