<svg xmlns="http://www.w3.org/2000/svg" xmlns:xlink="http://www.w3.org/1999/xlink" width="500" zoomAndPan="magnify" viewBox="0 0 375 374.999991" height="500" preserveAspectRatio="xMidYMid meet" version="1.0"><defs><clipPath id="f442faa773"><path d="M 11.734375 11.734375 L 363.484375 11.734375 L 363.484375 363.484375 L 11.734375 363.484375 Z M 11.734375 11.734375 " clip-rule="nonzero"/></clipPath></defs><g clip-path="url(#f442faa773)"><path fill="#69472a" d="M 187.609375 11.734375 C 90.636719 11.734375 11.734375 90.636719 11.734375 187.609375 C 11.734375 284.582031 90.636719 363.484375 187.609375 363.484375 C 284.582031 363.484375 363.484375 284.582031 363.484375 187.609375 C 363.484375 90.636719 284.582031 11.734375 187.609375 11.734375 Z M 187.609375 348.828125 C 98.710938 348.828125 26.390625 276.507812 26.390625 187.609375 C 26.390625 98.710938 98.710938 26.390625 187.609375 26.390625 C 276.507812 26.390625 348.828125 98.710938 348.828125 187.609375 C 348.828125 276.507812 276.507812 348.828125 187.609375 348.828125 Z M 187.609375 348.828125 " fill-opacity="1" fill-rule="nonzero"/></g><path fill="#69472a" d="M 211.835938 167.675781 L 222.015625 178.222656 C 239.414062 161.433594 267.722656 161.433594 285.117188 178.222656 L 295.296875 167.675781 C 272.285156 145.480469 234.839844 145.480469 211.835938 167.675781 Z M 211.835938 167.675781 " fill-opacity="1" fill-rule="nonzero"/><path fill="#69472a" d="M 163.382812 167.675781 C 140.371094 145.480469 102.933594 145.480469 79.921875 167.675781 L 90.101562 178.222656 C 107.5 161.433594 135.808594 161.433594 153.203125 178.222656 Z M 163.382812 167.675781 " fill-opacity="1" fill-rule="nonzero"/><path fill="#69472a" d="M 187.609375 275.546875 C 163.359375 275.546875 143.640625 255.828125 143.640625 231.578125 L 128.984375 231.578125 C 128.984375 263.902344 155.285156 290.203125 187.609375 290.203125 C 219.933594 290.203125 246.234375 263.902344 246.234375 231.578125 L 231.578125 231.578125 C 231.578125 255.828125 211.859375 275.546875 187.609375 275.546875 Z M 187.609375 275.546875 " fill-opacity="1" fill-rule="nonzero"/></svg>