<svg xmlns="http://www.w3.org/2000/svg" xmlns:xlink="http://www.w3.org/1999/xlink" width="500" zoomAndPan="magnify" viewBox="0 0 375 374.999991" height="500" preserveAspectRatio="xMidYMid meet" version="1.0"><path fill="#ffffff" d="M 212.578125 182.578125 C 211.480469 182.253906 210.363281 182.011719 209.230469 181.84375 C 208.09375 181.675781 206.957031 181.589844 205.808594 181.582031 C 204.664062 181.574219 203.523438 181.648438 202.386719 181.800781 C 201.253906 181.953125 200.132812 182.183594 199.03125 182.492188 C 197.925781 182.800781 196.851562 183.1875 195.800781 183.648438 C 194.75 184.105469 193.738281 184.636719 192.765625 185.238281 C 191.789062 185.84375 190.859375 186.507812 189.980469 187.242188 C 189.097656 187.972656 188.269531 188.761719 187.5 189.609375 C 186.730469 188.761719 185.902344 187.972656 185.019531 187.242188 C 184.140625 186.507812 183.210938 185.84375 182.234375 185.238281 C 181.261719 184.636719 180.25 184.105469 179.199219 183.648438 C 178.148438 183.1875 177.074219 182.800781 175.96875 182.492188 C 174.867188 182.183594 173.746094 181.953125 172.613281 181.800781 C 171.476562 181.648438 170.335938 181.574219 169.191406 181.582031 C 168.042969 181.589844 166.90625 181.675781 165.769531 181.84375 C 164.636719 182.011719 163.519531 182.253906 162.421875 182.578125 C 137.34375 192.539062 139.921875 224.707031 179.589844 248.730469 C 180.777344 249.464844 182.046875 250.019531 183.390625 250.402344 C 184.734375 250.78125 186.105469 250.972656 187.5 250.972656 C 188.898438 250.972656 190.265625 250.78125 191.609375 250.402344 C 192.953125 250.019531 194.222656 249.464844 195.410156 248.730469 C 235.078125 224.707031 237.65625 192.539062 212.578125 182.578125 Z M 191.015625 241.640625 C 190.488281 241.972656 189.925781 242.222656 189.328125 242.394531 C 188.730469 242.566406 188.121094 242.652344 187.5 242.652344 C 186.878906 242.652344 186.269531 242.566406 185.671875 242.394531 C 185.074219 242.222656 184.511719 241.972656 183.984375 241.640625 C 155.507812 224.0625 154.042969 208.769531 154.804688 203.027344 C 154.898438 202.144531 155.074219 201.273438 155.324219 200.421875 C 155.578125 199.570312 155.90625 198.746094 156.308594 197.953125 C 156.710938 197.160156 157.183594 196.410156 157.722656 195.703125 C 158.261719 194.996094 158.863281 194.34375 159.523438 193.746094 C 160.179688 193.148438 160.886719 192.617188 161.644531 192.148438 C 162.402344 191.679688 163.191406 191.285156 164.023438 190.960938 C 164.851562 190.636719 165.699219 190.390625 166.574219 190.222656 C 167.449219 190.054688 168.328125 189.96875 169.21875 189.960938 C 170.484375 190.003906 171.726562 190.175781 172.957031 190.480469 C 174.183594 190.785156 175.363281 191.21875 176.5 191.773438 C 177.636719 192.328125 178.703125 192.996094 179.695312 193.777344 C 180.691406 194.558594 181.59375 195.433594 182.402344 196.40625 C 182.738281 196.742188 183.101562 197.039062 183.496094 197.300781 C 183.890625 197.566406 184.304688 197.785156 184.742188 197.96875 C 185.179688 198.148438 185.628906 198.285156 186.09375 198.378906 C 186.558594 198.46875 187.027344 198.515625 187.5 198.515625 C 187.972656 198.515625 188.441406 198.46875 188.90625 198.378906 C 189.371094 198.285156 189.820312 198.148438 190.257812 197.96875 C 190.695312 197.785156 191.109375 197.566406 191.503906 197.300781 C 191.898438 197.039062 192.261719 196.742188 192.597656 196.40625 C 193.101562 195.765625 193.644531 195.167969 194.238281 194.605469 C 194.828125 194.046875 195.453125 193.53125 196.121094 193.0625 C 196.785156 192.597656 197.480469 192.179688 198.207031 191.8125 C 198.933594 191.445312 199.683594 191.136719 200.457031 190.878906 C 201.226562 190.621094 202.015625 190.421875 202.816406 190.28125 C 203.617188 190.140625 204.421875 190.058594 205.238281 190.035156 C 206.050781 190.011719 206.859375 190.046875 207.667969 190.144531 C 208.476562 190.238281 209.273438 190.394531 210.058594 190.605469 C 227.988281 198.046875 223.359375 221.953125 191.015625 241.640625 Z M 191.015625 241.640625 " fill-opacity="1" fill-rule="nonzero"/><path fill="#ffffff" d="M 152.578125 150.410156 L 152.578125 113.496094 C 154.804688 66.738281 220.839844 67.441406 222.421875 114.667969 L 222.421875 127.734375 L 160.957031 127.734375 L 160.957031 150.410156 C 160.953125 150.683594 160.921875 150.949219 160.863281 151.214844 C 160.804688 151.480469 160.722656 151.738281 160.617188 151.988281 C 160.507812 152.238281 160.378906 152.476562 160.222656 152.699219 C 160.070312 152.921875 159.894531 153.128906 159.703125 153.320312 C 159.507812 153.511719 159.296875 153.679688 159.070312 153.832031 C 158.84375 153.980469 158.605469 154.105469 158.351562 154.207031 C 158.101562 154.3125 157.84375 154.390625 157.574219 154.441406 C 157.308594 154.492188 157.039062 154.519531 156.769531 154.519531 C 156.496094 154.519531 156.226562 154.492188 155.960938 154.441406 C 155.691406 154.390625 155.433594 154.3125 155.183594 154.207031 C 154.929688 154.105469 154.691406 153.980469 154.464844 153.832031 C 154.238281 153.679688 154.027344 153.511719 153.832031 153.320312 C 153.640625 153.128906 153.464844 152.921875 153.3125 152.699219 C 153.15625 152.476562 153.027344 152.238281 152.917969 151.988281 C 152.8125 151.738281 152.730469 151.480469 152.671875 151.214844 C 152.613281 150.949219 152.582031 150.683594 152.578125 150.410156 Z M 152.578125 150.410156 " fill-opacity="1" fill-rule="nonzero"/><path fill="#ffffff" d="M 187.5 0 C 184.429688 0 181.363281 0.0742188 178.300781 0.226562 C 175.234375 0.375 172.175781 0.601562 169.121094 0.902344 C 166.066406 1.203125 163.023438 1.578125 159.988281 2.03125 C 156.953125 2.480469 153.929688 3.003906 150.921875 3.601562 C 147.910156 4.203125 144.917969 4.875 141.941406 5.617188 C 138.964844 6.363281 136.007812 7.183594 133.070312 8.074219 C 130.136719 8.964844 127.222656 9.925781 124.332031 10.960938 C 121.445312 11.996094 118.582031 13.097656 115.746094 14.273438 C 112.910156 15.445312 110.105469 16.691406 107.332031 18.003906 C 104.558594 19.3125 101.820312 20.691406 99.113281 22.140625 C 96.40625 23.585938 93.738281 25.097656 91.105469 26.675781 C 88.472656 28.253906 85.882812 29.894531 83.332031 31.597656 C 80.777344 33.304688 78.269531 35.070312 75.804688 36.898438 C 73.339844 38.726562 70.921875 40.613281 68.550781 42.558594 C 66.179688 44.507812 63.855469 46.511719 61.582031 48.570312 C 59.308594 50.632812 57.085938 52.746094 54.917969 54.917969 C 52.746094 57.085938 50.632812 59.308594 48.570312 61.582031 C 46.511719 63.855469 44.507812 66.179688 42.558594 68.550781 C 40.613281 70.921875 38.726562 73.339844 36.898438 75.804688 C 35.070312 78.269531 33.304688 80.777344 31.597656 83.332031 C 29.894531 85.882812 28.253906 88.472656 26.675781 91.105469 C 25.097656 93.738281 23.585938 96.40625 22.140625 99.113281 C 20.691406 101.820312 19.3125 104.558594 18.003906 107.332031 C 16.691406 110.105469 15.445312 112.910156 14.273438 115.746094 C 13.097656 118.582031 11.996094 121.445312 10.960938 124.332031 C 9.925781 127.222656 8.964844 130.136719 8.074219 133.070312 C 7.183594 136.007812 6.363281 138.964844 5.621094 141.941406 C 4.875 144.917969 4.203125 147.910156 3.601562 150.921875 C 3.003906 153.929688 2.480469 156.953125 2.03125 159.988281 C 1.578125 163.023438 1.203125 166.066406 0.902344 169.121094 C 0.601562 172.175781 0.375 175.234375 0.226562 178.300781 C 0.0742188 181.363281 0 184.429688 0 187.5 C 0 190.570312 0.0742188 193.636719 0.226562 196.699219 C 0.375 199.765625 0.601562 202.824219 0.902344 205.878906 C 1.203125 208.933594 1.578125 211.976562 2.03125 215.011719 C 2.480469 218.046875 3.003906 221.070312 3.601562 224.078125 C 4.203125 227.089844 4.875 230.082031 5.621094 233.058594 C 6.363281 236.035156 7.183594 238.992188 8.074219 241.929688 C 8.964844 244.863281 9.925781 247.777344 10.960938 250.667969 C 11.996094 253.554688 13.097656 256.417969 14.273438 259.253906 C 15.445312 262.089844 16.691406 264.894531 18.003906 267.667969 C 19.3125 270.441406 20.691406 273.179688 22.140625 275.886719 C 23.585938 278.59375 25.097656 281.261719 26.675781 283.894531 C 28.253906 286.527344 29.894531 289.117188 31.597656 291.667969 C 33.304688 294.222656 35.070312 296.730469 36.898438 299.195312 C 38.726562 301.660156 40.613281 304.078125 42.558594 306.449219 C 44.507812 308.820312 46.511719 311.144531 48.570312 313.417969 C 50.632812 315.691406 52.746094 317.914062 54.917969 320.082031 C 57.085938 322.253906 59.308594 324.367188 61.582031 326.429688 C 63.855469 328.488281 66.179688 330.492188 68.550781 332.441406 C 70.921875 334.386719 73.339844 336.273438 75.804688 338.101562 C 78.269531 339.929688 80.777344 341.695312 83.332031 343.402344 C 85.882812 345.105469 88.472656 346.746094 91.105469 348.324219 C 93.738281 349.902344 96.40625 351.414062 99.113281 352.859375 C 101.820312 354.308594 104.558594 355.6875 107.332031 356.996094 C 110.105469 358.308594 112.910156 359.554688 115.746094 360.726562 C 118.582031 361.902344 121.445312 363.003906 124.332031 364.039062 C 127.222656 365.074219 130.136719 366.035156 133.070312 366.925781 C 136.007812 367.816406 138.964844 368.636719 141.941406 369.378906 C 144.917969 370.125 147.910156 370.796875 150.921875 371.398438 C 153.929688 371.996094 156.953125 372.519531 159.988281 372.96875 C 163.023438 373.421875 166.066406 373.796875 169.121094 374.097656 C 172.175781 374.398438 175.234375 374.625 178.300781 374.773438 C 181.363281 374.925781 184.429688 375 187.5 375 C 190.570312 375 193.636719 374.925781 196.699219 374.773438 C 199.765625 374.625 202.824219 374.398438 205.878906 374.097656 C 208.933594 373.796875 211.976562 373.421875 215.011719 372.96875 C 218.046875 372.519531 221.070312 371.996094 224.078125 371.398438 C 227.089844 370.796875 230.082031 370.125 233.058594 369.378906 C 236.035156 368.636719 238.992188 367.816406 241.929688 366.925781 C 244.863281 366.035156 247.777344 365.074219 250.667969 364.039062 C 253.554688 363.003906 256.417969 361.902344 259.253906 360.726562 C 262.089844 359.554688 264.894531 358.308594 267.667969 356.996094 C 270.441406 355.6875 273.179688 354.308594 275.886719 352.859375 C 278.59375 351.414062 281.261719 349.902344 283.894531 348.324219 C 286.527344 346.746094 289.117188 345.105469 291.667969 343.402344 C 294.222656 341.695312 296.730469 339.929688 299.195312 338.101562 C 301.660156 336.273438 304.078125 334.386719 306.449219 332.4375 C 308.820312 330.492188 311.144531 328.488281 313.417969 326.429688 C 315.691406 324.367188 317.914062 322.253906 320.082031 320.082031 C 322.253906 317.914062 324.367188 315.691406 326.429688 313.417969 C 328.488281 311.144531 330.492188 308.820312 332.441406 306.449219 C 334.386719 304.078125 336.273438 301.660156 338.101562 299.195312 C 339.929688 296.730469 341.695312 294.222656 343.402344 291.667969 C 345.105469 289.117188 346.746094 286.527344 348.324219 283.894531 C 349.902344 281.261719 351.414062 278.59375 352.859375 275.886719 C 354.308594 273.179688 355.6875 270.441406 356.996094 267.667969 C 358.308594 264.894531 359.554688 262.089844 360.726562 259.253906 C 361.902344 256.417969 363.003906 253.554688 364.039062 250.667969 C 365.074219 247.777344 366.035156 244.863281 366.925781 241.929688 C 367.816406 238.992188 368.636719 236.035156 369.378906 233.058594 C 370.125 230.082031 370.796875 227.089844 371.398438 224.078125 C 371.996094 221.070312 372.519531 218.046875 372.96875 215.011719 C 373.421875 211.976562 373.796875 208.933594 374.097656 205.878906 C 374.398438 202.824219 374.625 199.765625 374.773438 196.699219 C 374.925781 193.636719 375 190.570312 375 187.5 C 375 184.429688 374.925781 181.363281 374.773438 178.300781 C 374.621094 175.234375 374.394531 172.175781 374.09375 169.121094 C 373.792969 166.070312 373.417969 163.023438 372.96875 159.988281 C 372.515625 156.953125 371.992188 153.933594 371.394531 150.921875 C 370.792969 147.914062 370.121094 144.917969 369.375 141.941406 C 368.628906 138.96875 367.8125 136.011719 366.921875 133.074219 C 366.03125 130.136719 365.066406 127.226562 364.035156 124.335938 C 363 121.445312 361.894531 118.585938 360.722656 115.75 C 359.546875 112.914062 358.304688 110.113281 356.992188 107.335938 C 355.679688 104.5625 354.300781 101.824219 352.851562 99.117188 C 351.40625 96.410156 349.894531 93.742188 348.316406 91.109375 C 346.738281 88.480469 345.097656 85.886719 343.394531 83.335938 C 341.6875 80.785156 339.921875 78.277344 338.09375 75.8125 C 336.265625 73.347656 334.378906 70.929688 332.433594 68.558594 C 330.484375 66.1875 328.480469 63.863281 326.421875 61.589844 C 324.359375 59.316406 322.246094 57.09375 320.074219 54.925781 C 317.90625 52.753906 315.683594 50.640625 313.410156 48.578125 C 311.136719 46.519531 308.8125 44.515625 306.441406 42.566406 C 304.070312 40.621094 301.652344 38.734375 299.1875 36.90625 C 296.722656 35.078125 294.214844 33.3125 291.664062 31.605469 C 289.113281 29.902344 286.519531 28.261719 283.890625 26.683594 C 281.257812 25.105469 278.589844 23.59375 275.882812 22.148438 C 273.175781 20.699219 270.4375 19.320312 267.664062 18.007812 C 264.886719 16.695312 262.085938 15.453125 259.25 14.277344 C 256.414062 13.105469 253.550781 12 250.664062 10.964844 C 247.773438 9.933594 244.863281 8.96875 241.925781 8.078125 C 238.988281 7.1875 236.03125 6.371094 233.058594 5.625 C 230.082031 4.878906 227.085938 4.207031 224.078125 3.605469 C 221.066406 3.007812 218.046875 2.484375 215.011719 2.03125 C 211.976562 1.582031 208.929688 1.207031 205.878906 0.90625 C 202.824219 0.605469 199.765625 0.378906 196.699219 0.226562 C 193.636719 0.0742188 190.570312 0 187.5 0 Z M 243.164062 304.863281 L 131.835938 304.863281 C 111.210938 304.804688 98.671875 283.945312 101.308594 263.90625 L 113.378906 155.625 C 113.488281 154.691406 113.636719 153.761719 113.828125 152.839844 C 114.019531 151.917969 114.25 151.007812 114.523438 150.105469 C 114.796875 149.203125 115.109375 148.316406 115.464844 147.445312 C 115.816406 146.570312 116.207031 145.714844 116.636719 144.878906 C 117.066406 144.039062 117.53125 143.222656 118.03125 142.425781 C 118.535156 141.632812 119.070312 140.859375 119.644531 140.109375 C 120.214844 139.363281 120.820312 138.640625 121.453125 137.949219 C 122.089844 137.253906 122.757812 136.589844 123.453125 135.957031 C 124.148438 135.320312 124.871094 134.71875 125.621094 134.148438 C 126.371094 133.582031 127.144531 133.046875 127.941406 132.546875 C 128.738281 132.042969 129.554688 131.582031 130.394531 131.15625 C 131.234375 130.726562 132.089844 130.339844 132.964844 129.988281 C 133.839844 129.636719 134.726562 129.328125 135.628906 129.058594 C 136.53125 128.785156 137.441406 128.558594 138.363281 128.367188 C 139.285156 128.179688 140.214844 128.03125 141.148438 127.925781 C 142.085938 127.820312 143.023438 127.757812 143.964844 127.734375 L 144.199219 127.734375 L 144.199219 113.496094 C 146.601562 56.074219 228.457031 56.191406 230.800781 113.496094 L 230.800781 127.734375 C 233.652344 127.707031 236.445312 128.097656 239.179688 128.90625 C 240.65625 129.347656 242.09375 129.894531 243.492188 130.546875 C 244.890625 131.195312 246.234375 131.945312 247.519531 132.792969 C 248.808594 133.640625 250.03125 134.574219 251.183594 135.601562 C 252.335938 136.625 253.40625 137.726562 254.398438 138.90625 C 255.390625 140.089844 256.289062 141.335938 257.101562 142.648438 C 257.910156 143.957031 258.621094 145.324219 259.234375 146.738281 C 259.84375 148.152344 260.351562 149.605469 260.75 151.09375 C 261.152344 152.582031 261.441406 154.09375 261.621094 155.625 L 273.691406 263.90625 C 276.328125 283.945312 263.789062 304.804688 243.164062 304.863281 Z M 243.164062 304.863281 " fill-opacity="1" fill-rule="nonzero"/></svg>