<svg xmlns="http://www.w3.org/2000/svg" xmlns:xlink="http://www.w3.org/1999/xlink" width="1000" zoomAndPan="magnify" viewBox="0 0 750 135.000003" height="180" preserveAspectRatio="xMidYMid meet" version="1.0"><defs><g/></defs><g fill="#000000" fill-opacity="1"><g transform="translate(38.356362, 118.550568)"><g><path d="M 55.742188 -93.085938 L 55.742188 -110.515625 L 0 -110.515625 L 0 -46.335938 L 38.3125 -54.910156 L 38.3125 -17.429688 L 0 -17.429688 L 0 0 L 55.742188 0 L 55.742188 -74.277344 L 17.429688 -67.636719 L 17.429688 -93.085938 Z M 55.742188 -93.085938 "/></g></g></g><g fill="#000000" fill-opacity="1"><g transform="translate(133.378443, 118.550568)"><g/></g></g><g fill="#000000" fill-opacity="1"><g transform="translate(189.950217, 118.550568)"><g><path d="M -0.277344 -110.515625 L -0.277344 0 L 17.152344 0 L 17.152344 -46.335938 L 38.035156 -46.335938 L 38.035156 0 L 55.464844 0 L 55.464844 -110.515625 Z M 38.035156 -63.761719 L 17.152344 -63.761719 L 17.152344 -93.085938 L 38.035156 -93.085938 Z M 38.035156 -63.761719 "/></g></g></g><g fill="#000000" fill-opacity="1"><g transform="translate(284.972298, 118.550568)"><g/></g></g><g fill="#000000" fill-opacity="1"><g transform="translate(341.544072, 118.550568)"><g><path d="M 55.601562 -93.085938 L 55.601562 -110.515625 L -0.136719 -110.515625 L -0.136719 0 L 55.601562 0 L 55.601562 -17.429688 L 17.289062 -17.429688 L 17.289062 -93.085938 Z M 55.601562 -93.085938 "/></g></g></g><g fill="#000000" fill-opacity="1"><g transform="translate(436.566171, 118.550568)"><g/></g></g><g fill="#000000" fill-opacity="1"><g transform="translate(493.137965, 118.550568)"><g><path d="M 55.601562 -63.902344 L 40.386719 -63.902344 L 56.433594 -110.515625 L -0.136719 -110.515625 L -0.136719 0 L 55.601562 0 Z M 38.035156 -17.429688 L 17.289062 -17.429688 L 17.289062 -93.085938 L 33.609375 -93.085938 L 17.429688 -46.75 L 38.035156 -46.75 Z M 38.035156 -17.429688 "/></g></g></g><g fill="#000000" fill-opacity="1"><g transform="translate(588.160064, 118.550568)"><g/></g></g><g fill="#000000" fill-opacity="1"><g transform="translate(644.731859, 118.550568)"><g><path d="M 55.464844 -0.136719 L 55.464844 -17.566406 L 17.152344 -17.566406 L 17.152344 -46.335938 L 41.355469 -46.335938 L 43.984375 -63.761719 L 17.152344 -63.761719 L 17.152344 -93.085938 L 55.464844 -93.085938 L 55.464844 -110.515625 L -0.277344 -110.515625 L -0.277344 -0.136719 Z M 55.464844 -0.136719 "/></g></g></g></svg>