<svg xmlns="http://www.w3.org/2000/svg" xmlns:xlink="http://www.w3.org/1999/xlink" width="800" zoomAndPan="magnify" viewBox="0 0 600 37.5" height="50" preserveAspectRatio="xMidYMid meet" version="1.0"><defs><g/></defs><g fill="#221b2a" fill-opacity="1"><g transform="translate(5.029345, 35.291003)"><g><path d="M 5.085938 0 L 5.085938 -18.410156 L 5.8125 -16.433594 L 5.8125 -13.523438 L 10.457031 -13.523438 L 10.457031 -16.433594 L 11.183594 -18.410156 L 11.183594 0 L 16.269531 0 L 16.269531 -32.257812 L 11.183594 -32.257812 L 8.15625 -23.335938 L 5.085938 -32.257812 L 0 -32.257812 L 0 0 Z M 5.085938 0 "/></g></g></g><g fill="#221b2a" fill-opacity="1"><g transform="translate(32.764446, 35.291003)"><g><path d="M -0.0820312 -32.257812 L -0.0820312 0 L 5.007812 0 L 5.007812 -13.523438 L 11.101562 -13.523438 L 11.101562 0 L 16.191406 0 L 16.191406 -32.257812 Z M 11.101562 -18.613281 L 5.007812 -18.613281 L 5.007812 -27.171875 L 11.101562 -27.171875 Z M 11.101562 -18.613281 "/></g></g></g><g fill="#221b2a" fill-opacity="1"><g transform="translate(60.499546, 35.291003)"><g><path d="M 16.269531 -32.257812 L 11.183594 -32.257812 L 11.183594 -30.28125 L 8.15625 -21.355469 L 5.085938 -30.28125 L 5.085938 -32.257812 L 0 -32.257812 L 0 -30.28125 L 5.570312 -14.453125 L 5.570312 0 L 10.660156 0 L 10.660156 -14.453125 L 16.269531 -30.28125 Z M 16.269531 -32.257812 "/></g></g></g><g fill="#221b2a" fill-opacity="1"><g transform="translate(88.234646, 35.291003)"><g><path d="M -0.0820312 -32.257812 L -0.0820312 0 L 5.007812 0 L 5.007812 -13.523438 L 11.101562 -13.523438 L 11.101562 0 L 16.191406 0 L 16.191406 -32.257812 Z M 11.101562 -18.613281 L 5.007812 -18.613281 L 5.007812 -27.171875 L 11.101562 -27.171875 Z M 11.101562 -18.613281 "/></g></g></g><g fill="#221b2a" fill-opacity="1"><g transform="translate(115.969747, 35.291003)"><g><path d="M 11.183594 -32.257812 L 11.222656 -18.410156 L 5.976562 -32.257812 L 0 -32.257812 L 0 -0.0390625 L 5.085938 -0.0390625 L 5.085938 -21.597656 L 11.183594 -5.085938 L 11.183594 -0.0390625 L 16.269531 -0.0390625 L 16.269531 -32.257812 Z M 11.183594 -32.257812 "/></g></g></g><g fill="#221b2a" fill-opacity="1"><g transform="translate(143.704855, 35.291003)"><g/></g></g><g fill="#221b2a" fill-opacity="1"><g transform="translate(160.218573, 35.291003)"><g><path d="M 16.230469 -27.171875 L 16.230469 -32.257812 L -0.0390625 -32.257812 L -0.0390625 0 L 16.230469 0 L 16.230469 -5.085938 L 5.046875 -5.085938 L 5.046875 -27.171875 Z M 16.230469 -27.171875 "/></g></g></g><g fill="#221b2a" fill-opacity="1"><g transform="translate(187.953682, 35.291003)"><g><path d="M 16.191406 -0.0390625 L 16.191406 -5.128906 L 5.007812 -5.128906 L 5.007812 -13.523438 L 12.070312 -13.523438 L 12.839844 -18.613281 L 5.007812 -18.613281 L 5.007812 -27.171875 L 16.191406 -27.171875 L 16.191406 -32.257812 L -0.0820312 -32.257812 L -0.0820312 -0.0390625 Z M 16.191406 -0.0390625 "/></g></g></g><g fill="#221b2a" fill-opacity="1"><g transform="translate(215.68879, 35.291003)"><g><path d="M -0.0390625 -32.257812 L -0.0390625 0 L 5.046875 0 L 5.046875 -27.171875 L 11.144531 -27.171875 L 11.144531 -18.613281 L 5.894531 -18.613281 L 11.144531 0 L 16.230469 0 L 12.433594 -13.523438 L 16.230469 -13.523438 L 16.230469 -32.257812 Z M -0.0390625 -32.257812 "/></g></g></g><g fill="#221b2a" fill-opacity="1"><g transform="translate(243.423899, 35.291003)"><g><path d="M 16.191406 -0.0390625 L 16.191406 -5.128906 L 5.007812 -5.128906 L 5.007812 -13.523438 L 12.070312 -13.523438 L 12.839844 -18.613281 L 5.007812 -18.613281 L 5.007812 -27.171875 L 16.191406 -27.171875 L 16.191406 -32.257812 L -0.0820312 -32.257812 L -0.0820312 -0.0390625 Z M 16.191406 -0.0390625 "/></g></g></g><g fill="#221b2a" fill-opacity="1"><g transform="translate(271.159007, 35.291003)"><g><path d="M 5.085938 0 L 5.085938 -18.410156 L 5.8125 -16.433594 L 5.8125 -13.523438 L 10.457031 -13.523438 L 10.457031 -16.433594 L 11.183594 -18.410156 L 11.183594 0 L 16.269531 0 L 16.269531 -32.257812 L 11.183594 -32.257812 L 8.15625 -23.335938 L 5.085938 -32.257812 L 0 -32.257812 L 0 0 Z M 5.085938 0 "/></g></g></g><g fill="#221b2a" fill-opacity="1"><g transform="translate(298.894116, 35.291003)"><g><path d="M 0 -32.257812 L 0 0 L 16.269531 0 L 16.269531 -32.257812 Z M 11.183594 -5.085938 L 5.085938 -5.085938 L 5.085938 -27.171875 L 11.183594 -27.171875 Z M 11.183594 -5.085938 "/></g></g></g><g fill="#221b2a" fill-opacity="1"><g transform="translate(326.629225, 35.291003)"><g><path d="M 11.183594 -32.257812 L 11.222656 -18.410156 L 5.976562 -32.257812 L 0 -32.257812 L 0 -0.0390625 L 5.085938 -0.0390625 L 5.085938 -21.597656 L 11.183594 -5.085938 L 11.183594 -0.0390625 L 16.269531 -0.0390625 L 16.269531 -32.257812 Z M 11.183594 -32.257812 "/></g></g></g><g fill="#221b2a" fill-opacity="1"><g transform="translate(354.364333, 35.291003)"><g><path d="M 16.269531 -27.171875 L 16.269531 -32.257812 L 0 -32.257812 L 0 -27.171875 L 5.613281 -27.171875 L 5.613281 -5.085938 L 0 -5.085938 L 0 0 L 16.269531 0 L 16.269531 -5.085938 L 10.699219 -5.085938 L 10.699219 -27.171875 Z M 16.269531 -27.171875 "/></g></g></g><g fill="#221b2a" fill-opacity="1"><g transform="translate(382.099442, 35.291003)"><g><path d="M -0.0820312 -32.257812 L -0.0820312 0 L 5.007812 0 L 5.007812 -13.523438 L 11.101562 -13.523438 L 11.101562 0 L 16.191406 0 L 16.191406 -32.257812 Z M 11.101562 -18.613281 L 5.007812 -18.613281 L 5.007812 -27.171875 L 11.101562 -27.171875 Z M 11.101562 -18.613281 "/></g></g></g><g fill="#221b2a" fill-opacity="1"><g transform="translate(409.834551, 35.291003)"><g><path d="M 5.085938 -5.085938 L 5.085938 -32.257812 L 0 -32.257812 L 0 0 L 16.269531 0 L 16.269531 -5.085938 Z M 5.085938 -5.085938 "/></g></g></g><g fill="#221b2a" fill-opacity="1"><g transform="translate(437.569659, 35.291003)"><g/></g></g><g fill="#221b2a" fill-opacity="1"><g transform="translate(454.083377, 35.291003)"><g><path d="M 16.230469 -27.171875 L 16.230469 -32.257812 L -0.0390625 -32.257812 L -0.0390625 0 L 16.230469 0 L 16.230469 -5.085938 L 5.046875 -5.085938 L 5.046875 -27.171875 Z M 16.230469 -27.171875 "/></g></g></g><g fill="#221b2a" fill-opacity="1"><g transform="translate(481.818485, 35.291003)"><g><path d="M -0.0820312 -32.257812 L -0.0820312 0 L 5.007812 0 L 5.007812 -13.523438 L 11.101562 -13.523438 L 11.101562 0 L 16.191406 0 L 16.191406 -32.257812 Z M 11.101562 -18.613281 L 5.007812 -18.613281 L 5.007812 -27.171875 L 11.101562 -27.171875 Z M 11.101562 -18.613281 "/></g></g></g><g fill="#221b2a" fill-opacity="1"><g transform="translate(509.553594, 35.291003)"><g><path d="M 16.230469 -27.171875 L 16.230469 -32.257812 L -0.0390625 -32.257812 L -0.0390625 0 L 16.230469 0 L 16.230469 -5.085938 L 5.046875 -5.085938 L 5.046875 -27.171875 Z M 16.230469 -27.171875 "/></g></g></g><g fill="#221b2a" fill-opacity="1"><g transform="translate(537.288703, 35.291003)"><g><path d="M -0.0820312 -32.257812 L -0.0820312 0 L 5.007812 0 L 5.007812 -13.523438 L 11.101562 -13.523438 L 11.101562 0 L 16.191406 0 L 16.191406 -32.257812 Z M 11.101562 -18.613281 L 5.007812 -18.613281 L 5.007812 -27.171875 L 11.101562 -27.171875 Z M 11.101562 -18.613281 "/></g></g></g><g fill="#221b2a" fill-opacity="1"><g transform="translate(565.023778, 35.291003)"><g><path d="M 16.269531 -32.257812 L 0 -32.257812 L 0 0 L 16.269531 0 Z M 9.445312 -27.171875 L 5.046875 -14.535156 L 5.046875 -27.171875 Z M 6.863281 -5.085938 L 11.183594 -17.5625 L 11.144531 -5.085938 Z M 6.863281 -5.085938 "/></g></g></g></svg>