<svg xmlns="http://www.w3.org/2000/svg" xmlns:xlink="http://www.w3.org/1999/xlink" width="1000" zoomAndPan="magnify" viewBox="0 0 750 749.999995" height="1000" preserveAspectRatio="xMidYMid meet" version="1.0"><defs><clipPath id="485a18f1c5"><path d="M 173 123 L 303.425781 123 L 303.425781 331.34375 L 173 331.34375 Z M 173 123 " clip-rule="nonzero"/></clipPath><clipPath id="afd1c4e03e"><path d="M 237.683594 331.34375 L 171.945312 122.378906 L 303.425781 122.378906 L 237.683594 331.34375 " clip-rule="nonzero"/></clipPath><clipPath id="3d875e9585"><path d="M 449 123 L 579.078125 123 L 579.078125 331.34375 L 449 331.34375 Z M 449 123 " clip-rule="nonzero"/></clipPath><clipPath id="f44e59595a"><path d="M 513.335938 331.34375 L 447.59375 122.378906 L 579.078125 122.378906 L 513.335938 331.34375 " clip-rule="nonzero"/></clipPath><clipPath id="bfd63355c8"><path d="M 0 251.925781 L 130 251.925781 L 130 478.613281 L 0 478.613281 Z M 0 251.925781 " clip-rule="nonzero"/></clipPath><clipPath id="fab240fa45"><path d="M 65.742188 251.925781 L 131.484375 478.328125 L 0 478.328125 L 65.742188 251.925781 " clip-rule="nonzero"/></clipPath><clipPath id="59b575462f"><path d="M 65.582031 219.257812 L 196 219.257812 L 196 478.328125 L 65.582031 478.328125 Z M 65.582031 219.257812 " clip-rule="nonzero"/></clipPath><clipPath id="85b6c4a380"><path d="M 131.324219 219.257812 L 197.066406 478.328125 L 65.582031 478.328125 L 131.324219 219.257812 " clip-rule="nonzero"/></clipPath><clipPath id="6aba648499"><path d="M 618.515625 251.925781 L 749 251.925781 L 749 478.613281 L 618.515625 478.613281 Z M 618.515625 251.925781 " clip-rule="nonzero"/></clipPath><clipPath id="5ace2b80db"><path d="M 684.257812 251.925781 L 750 478.328125 L 618.515625 478.328125 L 684.257812 251.925781 " clip-rule="nonzero"/></clipPath><clipPath id="4cef1f4efb"><path d="M 567.238281 219.257812 L 697 219.257812 L 697 478.328125 L 567.238281 478.328125 Z M 567.238281 219.257812 " clip-rule="nonzero"/></clipPath><clipPath id="4cf5760eea"><path d="M 632.980469 219.257812 L 698.722656 478.328125 L 567.238281 478.328125 L 632.980469 219.257812 " clip-rule="nonzero"/></clipPath><clipPath id="e13ad45fdb"><path d="M 131.324219 348.792969 L 261 348.792969 L 261 607.867188 L 131.324219 607.867188 Z M 131.324219 348.792969 " clip-rule="nonzero"/></clipPath><clipPath id="b7a25de78d"><path d="M 197.066406 348.792969 L 262.808594 607.867188 L 131.324219 607.867188 L 197.066406 348.792969 " clip-rule="nonzero"/></clipPath><clipPath id="cca09d756b"><path d="M 226.929688 417.964844 L 380 417.964844 L 380 608 L 226.929688 608 Z M 226.929688 417.964844 " clip-rule="nonzero"/></clipPath><clipPath id="d922190bf1"><path d="M 303.433594 417.964844 L 379.933594 607.867188 L 226.929688 607.867188 L 303.433594 417.964844 " clip-rule="nonzero"/></clipPath><clipPath id="ec50fa9ab6"><path d="M 377.960938 417.964844 L 526 417.964844 L 526 608 L 377.960938 608 Z M 377.960938 417.964844 " clip-rule="nonzero"/></clipPath><clipPath id="c8c66e971e"><path d="M 452.367188 417.964844 L 526.773438 607.867188 L 377.960938 607.867188 L 452.367188 417.964844 " clip-rule="nonzero"/></clipPath><clipPath id="49a52ae554"><path d="M 492.910156 348.792969 L 623 348.792969 L 623 607.867188 L 492.910156 607.867188 Z M 492.910156 348.792969 " clip-rule="nonzero"/></clipPath><clipPath id="c00bfe9667"><path d="M 558.652344 348.792969 L 624.394531 607.867188 L 492.910156 607.867188 L 558.652344 348.792969 " clip-rule="nonzero"/></clipPath></defs><g clip-path="url(#485a18f1c5)"><g clip-path="url(#afd1c4e03e)"><path fill="#f9a72b" d="M 303.425781 331.34375 L 173.890625 331.34375 L 173.890625 123.160156 L 303.425781 123.160156 Z M 303.425781 331.34375 " fill-opacity="1" fill-rule="nonzero"/></g></g><g clip-path="url(#3d875e9585)"><g clip-path="url(#f44e59595a)"><path fill="#f9a72b" d="M 579.078125 331.34375 L 449.539062 331.34375 L 449.539062 123.160156 L 579.078125 123.160156 Z M 579.078125 331.34375 " fill-opacity="1" fill-rule="nonzero"/></g></g><g clip-path="url(#bfd63355c8)"><g clip-path="url(#fab240fa45)"><path fill="#f9a72b" d="M 0 251.925781 L 129.535156 251.925781 L 129.535156 478.613281 L 0 478.613281 Z M 0 251.925781 " fill-opacity="1" fill-rule="nonzero"/></g></g><g clip-path="url(#59b575462f)"><g clip-path="url(#85b6c4a380)"><path fill="#000000" d="M 65.582031 219.257812 L 195.121094 219.257812 L 195.121094 478.328125 L 65.582031 478.328125 Z M 65.582031 219.257812 " fill-opacity="1" fill-rule="nonzero"/></g></g><g clip-path="url(#6aba648499)"><g clip-path="url(#5ace2b80db)"><path fill="#f9a72b" d="M 618.515625 251.925781 L 748.050781 251.925781 L 748.050781 478.613281 L 618.515625 478.613281 Z M 618.515625 251.925781 " fill-opacity="1" fill-rule="nonzero"/></g></g><g clip-path="url(#4cef1f4efb)"><g clip-path="url(#4cf5760eea)"><path fill="#000000" d="M 567.238281 219.257812 L 696.773438 219.257812 L 696.773438 478.328125 L 567.238281 478.328125 Z M 567.238281 219.257812 " fill-opacity="1" fill-rule="nonzero"/></g></g><g clip-path="url(#e13ad45fdb)"><g clip-path="url(#b7a25de78d)"><path fill="#000000" d="M 131.324219 348.792969 L 260.863281 348.792969 L 260.863281 607.867188 L 131.324219 607.867188 Z M 131.324219 348.792969 " fill-opacity="1" fill-rule="nonzero"/></g></g><g clip-path="url(#cca09d756b)"><g clip-path="url(#d922190bf1)"><path fill="#000000" d="M 226.929688 417.964844 L 379.597656 417.964844 L 379.597656 607.640625 L 226.929688 607.640625 Z M 226.929688 417.964844 " fill-opacity="1" fill-rule="nonzero"/></g></g><g clip-path="url(#ec50fa9ab6)"><g clip-path="url(#c8c66e971e)"><path fill="#000000" d="M 377.960938 417.964844 L 526 417.964844 L 526 607.640625 L 377.960938 607.640625 Z M 377.960938 417.964844 " fill-opacity="1" fill-rule="nonzero"/></g></g><g clip-path="url(#49a52ae554)"><g clip-path="url(#c00bfe9667)"><path fill="#000000" d="M 492.910156 348.792969 L 622.445312 348.792969 L 622.445312 607.867188 L 492.910156 607.867188 Z M 492.910156 348.792969 " fill-opacity="1" fill-rule="nonzero"/></g></g></svg>