<svg xmlns="http://www.w3.org/2000/svg" xmlns:xlink="http://www.w3.org/1999/xlink" width="500" zoomAndPan="magnify" viewBox="0 0 375 374.999991" height="500" preserveAspectRatio="xMidYMid meet" version="1.0"><defs><clipPath id="ce5e44b4a0"><path d="M 187.5 0 C 83.945312 0 0 83.945312 0 187.5 C 0 291.054688 83.945312 375 187.5 375 C 291.054688 375 375 291.054688 375 187.5 C 375 83.945312 291.054688 0 187.5 0 " clip-rule="nonzero"/></clipPath><clipPath id="ac84488fea"><path d="M 31.285156 93 L 297 93 L 297 281.566406 L 31.285156 281.566406 Z M 31.285156 93 " clip-rule="nonzero"/></clipPath><clipPath id="f15c99e9e5"><path d="M 31.285156 187.492188 L 296.832031 93.417969 L 296.832031 281.566406 L 31.285156 187.492188 " clip-rule="nonzero"/></clipPath></defs><g clip-path="url(#ce5e44b4a0)"><rect x="-37.5" width="450" fill="#000000" y="-37.499999" height="449.999989" fill-opacity="1"/></g><g clip-path="url(#ac84488fea)"><g clip-path="url(#f15c99e9e5)"><path fill="#ff914d" d="M 31.285156 281.566406 L 31.285156 92.972656 L 296.710938 92.972656 L 296.710938 281.566406 Z M 31.285156 281.566406 " fill-opacity="1" fill-rule="nonzero"/></g></g></svg>